<svg xmlns="http://www.w3.org/2000/svg" xmlns:xlink="http://www.w3.org/1999/xlink" width="500" zoomAndPan="magnify" viewBox="0 0 375 374.999991" height="500" preserveAspectRatio="xMidYMid meet" version="1.0"><defs><clipPath id="459c14fb7f"><path d="M 189.554688 63.527344 L 191.03125 63.527344 L 191.03125 64.75 L 189.554688 64.75 Z M 189.554688 63.527344 " clip-rule="nonzero"/></clipPath><clipPath id="7d45d9d6b6"><path d="M 191.023438 63.976562 C 190.351562 64.949219 189.75 64.800781 189.601562 64.574219 C 189.523438 64.351562 189.601562 63.75 189.824219 63.601562 C 189.976562 63.449219 190.800781 63.675781 190.800781 63.675781 " clip-rule="nonzero"/></clipPath><clipPath id="498761ff9a"><path d="M 188.925781 64.203125 L 190.375 64.203125 L 190.375 65.425781 L 188.925781 65.425781 Z M 188.925781 64.203125 " clip-rule="nonzero"/></clipPath><clipPath id="5bd3285a65"><path d="M 190.351562 64.648438 C 189.675781 65.625 189.074219 65.476562 189 65.25 C 188.851562 65.023438 189 64.425781 189.148438 64.273438 C 189.375 64.125 190.125 64.351562 190.125 64.351562 " clip-rule="nonzero"/></clipPath><clipPath id="23af0c1d1f"><path d="M 188.839844 64.414062 L 192 64.414062 L 192 65.9375 L 188.839844 65.9375 Z M 188.839844 64.414062 " clip-rule="nonzero"/></clipPath><clipPath id="bd2dccd634"><path d="M 189.601562 64.425781 C 191.925781 65.023438 191.101562 65.925781 190.949219 65.851562 C 190.726562 65.773438 190.574219 64.726562 190.726562 64.648438 C 190.875 64.5 192 64.949219 192 65.101562 C 192 65.398438 190.199219 66 189.601562 65.925781 C 189.300781 65.851562 188.925781 65.476562 188.851562 65.25 C 188.851562 65.023438 189.601562 64.425781 189.601562 64.425781 " clip-rule="nonzero"/></clipPath><clipPath id="b8a68b2511"><path d="M 186.898438 63.796875 L 192.289062 63.796875 L 192.289062 66.460938 L 186.898438 66.460938 Z M 186.898438 63.796875 " clip-rule="nonzero"/></clipPath><clipPath id="60b268f5f7"><path d="M 191.476562 65.550781 C 187.125 66.375 186.898438 65.625 187.050781 65.398438 C 187.125 65.175781 187.949219 65.101562 188.101562 65.25 C 188.324219 65.398438 188.25 66.375 188.101562 66.449219 C 187.875 66.523438 186.976562 66 186.898438 65.699219 C 186.898438 65.25 188.476562 64.199219 189.300781 63.898438 C 190.125 63.675781 191.625 63.898438 192 64.273438 C 192.300781 64.5 192.300781 65.023438 192.226562 65.25 C 192.148438 65.398438 191.476562 65.550781 191.476562 65.550781 " clip-rule="nonzero"/></clipPath><clipPath id="74ee7663a5"><path d="M 95.914062 91.039062 L 97.585938 91.039062 L 97.585938 94.207031 L 95.914062 94.207031 Z M 95.914062 91.039062 " clip-rule="nonzero"/></clipPath><clipPath id="7faf366676"><path d="M 97.574219 91.875 C 96.75 94.199219 95.925781 93.300781 95.925781 93.148438 C 96 93 97.199219 93 97.351562 93.148438 C 97.425781 93.375 96.601562 94.273438 96.449219 94.199219 C 96.148438 94.125 95.851562 92.175781 96.074219 91.648438 C 96.226562 91.273438 96.601562 90.976562 96.824219 91.050781 C 97.125 91.050781 97.574219 91.875 97.574219 91.875 " clip-rule="nonzero"/></clipPath><clipPath id="a2ac118e5a"><path d="M 282.578125 90.726562 L 284.554688 90.726562 L 284.554688 93.863281 L 282.578125 93.863281 Z M 282.578125 90.726562 " clip-rule="nonzero"/></clipPath><clipPath id="ccf23a5450"><path d="M 283.199219 93.449219 C 282.976562 90.675781 283.949219 91.425781 283.875 91.574219 C 283.875 91.800781 282.675781 92.023438 282.601562 91.875 C 282.449219 91.726562 283.199219 90.675781 283.425781 90.75 C 283.800781 90.75 284.550781 92.324219 284.550781 92.851562 C 284.550781 93.226562 284.476562 93.675781 284.25 93.824219 C 284.023438 93.898438 283.199219 93.449219 283.199219 93.449219 " clip-rule="nonzero"/></clipPath><clipPath id="75503090b9"><path d="M 316.230469 187.203125 L 317.652344 187.203125 L 317.652344 188.453125 L 316.230469 188.453125 Z M 316.230469 187.203125 " clip-rule="nonzero"/></clipPath><clipPath id="86a07e3ee0"><path d="M 317.625 187.648438 C 317.023438 188.699219 316.425781 188.476562 316.273438 188.25 C 316.199219 188.023438 316.273438 187.425781 316.5 187.273438 C 316.648438 187.125 317.476562 187.351562 317.476562 187.351562 " clip-rule="nonzero"/></clipPath><clipPath id="e2bb0ca2c3"><path d="M 316.90625 187.578125 L 318.382812 187.578125 L 318.382812 188.800781 L 316.90625 188.800781 Z M 316.90625 187.578125 " clip-rule="nonzero"/></clipPath><clipPath id="fb021fbc77"><path d="M 318.375 188.023438 C 317.699219 189 317.101562 188.851562 316.949219 188.625 C 316.875 188.398438 316.949219 187.800781 317.175781 187.648438 C 317.324219 187.5 318.148438 187.726562 318.148438 187.726562 " clip-rule="nonzero"/></clipPath><clipPath id="bdbb1c3972"><path d="M 316.726562 186.152344 L 318.175781 186.152344 L 318.175781 187.402344 L 316.726562 187.402344 Z M 316.726562 186.152344 " clip-rule="nonzero"/></clipPath><clipPath id="dcd03b1b14"><path d="M 318.148438 186.601562 C 317.550781 187.648438 316.949219 187.425781 316.800781 187.199219 C 316.648438 187.050781 316.800781 186.375 317.023438 186.226562 C 317.175781 186.074219 318 186.300781 318 186.300781 " clip-rule="nonzero"/></clipPath><clipPath id="c7143a98f7"><path d="M 316.90625 187.050781 L 318.382812 187.050781 L 318.382812 188.273438 L 316.90625 188.273438 Z M 316.90625 187.050781 " clip-rule="nonzero"/></clipPath><clipPath id="aa1e1ae01b"><path d="M 318.375 187.5 C 317.699219 188.476562 317.101562 188.324219 316.949219 188.101562 C 316.875 187.875 316.949219 187.273438 317.175781 187.125 C 317.324219 186.976562 318.148438 187.199219 318.148438 187.199219 " clip-rule="nonzero"/></clipPath><clipPath id="bf16f96b2d"><path d="M 56.128906 186.902344 L 57.550781 186.902344 L 57.550781 188.09375 L 56.128906 188.09375 Z M 56.128906 186.902344 " clip-rule="nonzero"/></clipPath><clipPath id="452687fc51"><path d="M 57.523438 187.273438 C 56.925781 188.324219 56.324219 188.101562 56.175781 187.949219 C 56.101562 187.726562 56.175781 187.125 56.398438 186.976562 C 56.550781 186.824219 57.375 186.976562 57.375 186.976562 " clip-rule="nonzero"/></clipPath><clipPath id="7429918d28"><path d="M 56.824219 184.277344 L 58.300781 184.277344 L 58.300781 185.5 L 56.824219 185.5 Z M 56.824219 184.277344 " clip-rule="nonzero"/></clipPath><clipPath id="a0182f6cbd"><path d="M 58.273438 184.726562 C 57.601562 185.699219 57 185.550781 56.925781 185.324219 C 56.773438 185.101562 56.851562 184.5 57.074219 184.351562 C 57.300781 184.199219 58.050781 184.425781 58.050781 184.425781 " clip-rule="nonzero"/></clipPath><clipPath id="172930c812"><path d="M 55.917969 183.265625 L 59.359375 183.265625 L 59.359375 189.96875 L 55.917969 189.96875 Z M 55.917969 183.265625 " clip-rule="nonzero"/></clipPath><clipPath id="92403bc279"><path d="M 59.324219 184.050781 C 57.675781 187.875 58.5 189.523438 58.125 189.824219 C 57.976562 190.050781 57.226562 189.898438 57.074219 189.675781 C 56.925781 189.449219 57.074219 188.773438 57.300781 188.625 C 57.523438 188.476562 58.351562 188.699219 58.351562 188.925781 C 58.425781 189.148438 57.675781 189.976562 57.300781 189.898438 C 56.773438 189.824219 55.875 187.800781 55.949219 186.75 C 56.023438 185.625 57.375 183.523438 58.125 183.300781 C 58.5 183.226562 59.324219 184.050781 59.324219 184.050781 " clip-rule="nonzero"/></clipPath><clipPath id="b03ca03f5a"><path d="M 269.777344 278.550781 L 271.226562 278.550781 L 271.226562 279.773438 L 269.777344 279.773438 Z M 269.777344 278.550781 " clip-rule="nonzero"/></clipPath><clipPath id="fcbd9c6030"><path d="M 271.199219 279 C 270.601562 279.976562 270 279.824219 269.851562 279.601562 C 269.699219 279.375 269.851562 278.773438 270 278.625 C 270.226562 278.476562 271.050781 278.699219 271.050781 278.699219 " clip-rule="nonzero"/></clipPath><clipPath id="be8f24b4c6"><path d="M 271.128906 277.652344 L 272.578125 277.652344 L 272.578125 278.875 L 271.128906 278.875 Z M 271.128906 277.652344 " clip-rule="nonzero"/></clipPath><clipPath id="40e207ae85"><path d="M 272.550781 278.101562 C 271.949219 279.074219 271.351562 278.925781 271.199219 278.699219 C 271.050781 278.476562 271.199219 277.875 271.425781 277.726562 C 271.574219 277.574219 272.398438 277.800781 272.398438 277.800781 " clip-rule="nonzero"/></clipPath><clipPath id="7dfaa79ea7"><path d="M 270.226562 277.351562 L 271.675781 277.351562 L 271.675781 278.574219 L 270.226562 278.574219 Z M 270.226562 277.351562 " clip-rule="nonzero"/></clipPath><clipPath id="9bc5184684"><path d="M 271.648438 277.800781 C 271.050781 278.773438 270.449219 278.625 270.300781 278.398438 C 270.148438 278.175781 270.300781 277.574219 270.449219 277.425781 C 270.675781 277.273438 271.5 277.5 271.5 277.5 " clip-rule="nonzero"/></clipPath><clipPath id="84f62c1ada"><path d="M 270.078125 278.253906 L 271.527344 278.253906 L 271.527344 279.503906 L 270.078125 279.503906 Z M 270.078125 278.253906 " clip-rule="nonzero"/></clipPath><clipPath id="ddcbcfa578"><path d="M 271.5 278.699219 C 270.898438 279.75 270.300781 279.523438 270.148438 279.300781 C 270 279.074219 270.148438 278.476562 270.300781 278.324219 C 270.523438 278.175781 271.351562 278.398438 271.351562 278.398438 " clip-rule="nonzero"/></clipPath><clipPath id="cecb8c47f2"><path d="M 268 277.722656 L 272.410156 277.722656 L 272.410156 280.832031 L 268 280.832031 Z M 268 277.722656 " clip-rule="nonzero"/></clipPath><clipPath id="642584eefd"><path d="M 268.273438 279.523438 C 272.023438 277.425781 272.324219 277.726562 272.398438 277.949219 C 272.476562 278.175781 272.101562 278.851562 271.949219 278.925781 C 271.648438 278.925781 270.898438 278.023438 271.050781 277.875 C 271.125 277.726562 272.324219 277.648438 272.398438 277.875 C 272.476562 278.175781 269.851562 280.574219 269.023438 280.800781 C 268.648438 280.875 268.199219 280.800781 268.050781 280.574219 C 267.898438 280.425781 268.273438 279.523438 268.273438 279.523438 " clip-rule="nonzero"/></clipPath><clipPath id="e53a0545a6"><path d="M 264.886719 279.363281 L 268.8125 279.363281 L 268.8125 281.089844 L 264.886719 281.089844 Z M 264.886719 279.363281 " clip-rule="nonzero"/></clipPath><clipPath id="e452dfef23"><path d="M 265.648438 279.375 C 268.726562 279.824219 268.125 280.875 267.976562 280.875 C 267.824219 280.875 267.449219 279.75 267.523438 279.601562 C 267.675781 279.449219 268.726562 279.824219 268.800781 280.125 C 268.875 280.273438 268.574219 280.726562 268.273438 280.875 C 267.824219 281.101562 266.25 281.175781 265.648438 280.875 C 265.273438 280.726562 264.898438 280.273438 264.898438 280.050781 C 264.898438 279.824219 265.648438 279.375 265.648438 279.375 " clip-rule="nonzero"/></clipPath><clipPath id="d0b198495d"><path d="M 242.402344 282.300781 L 243.851562 282.300781 L 243.851562 283.550781 L 242.402344 283.550781 Z M 242.402344 282.300781 " clip-rule="nonzero"/></clipPath><clipPath id="70dd97a640"><path d="M 243.824219 282.75 C 243.226562 283.800781 242.625 283.574219 242.476562 283.351562 C 242.324219 283.125 242.476562 282.523438 242.625 282.375 C 242.851562 282.226562 243.675781 282.449219 243.675781 282.449219 " clip-rule="nonzero"/></clipPath><clipPath id="026595764a"><path d="M 270.292969 274.714844 L 272.699219 274.714844 L 272.699219 278.554688 L 270.292969 278.554688 Z M 270.292969 274.714844 " clip-rule="nonzero"/></clipPath><clipPath id="72aa7008b5"><path d="M 270.300781 277.5 C 271.875 274.574219 272.324219 274.648438 272.550781 274.800781 C 272.699219 274.949219 272.773438 275.773438 272.550781 275.851562 C 272.398438 276 271.351562 275.625 271.273438 275.476562 C 271.273438 275.25 272.25 274.648438 272.476562 274.726562 C 272.773438 274.949219 272.101562 277.726562 271.574219 278.25 C 271.351562 278.550781 270.75 278.625 270.523438 278.476562 C 270.300781 278.324219 270.300781 277.5 270.300781 277.5 " clip-rule="nonzero"/></clipPath><clipPath id="25eedc5460"><path d="M 120.273438 276.601562 L 121.75 276.601562 L 121.75 277.851562 L 120.273438 277.851562 Z M 120.273438 276.601562 " clip-rule="nonzero"/></clipPath><clipPath id="7c20d0c955"><path d="M 121.726562 277.050781 C 121.050781 278.101562 120.449219 277.875 120.375 277.648438 C 120.226562 277.425781 120.300781 276.824219 120.523438 276.675781 C 120.75 276.523438 121.5 276.75 121.5 276.75 " clip-rule="nonzero"/></clipPath><clipPath id="e7cbdbbe8e"><path d="M 119.328125 277 L 120.777344 277 L 120.777344 278.226562 L 119.328125 278.226562 Z M 119.328125 277 " clip-rule="nonzero"/></clipPath><clipPath id="442deb349f"><path d="M 120.75 277.425781 C 120.074219 278.476562 119.550781 278.25 119.398438 278.023438 C 119.25 277.875 119.398438 277.199219 119.550781 277.050781 C 119.773438 276.898438 120.523438 277.125 120.523438 277.125 " clip-rule="nonzero"/></clipPath><clipPath id="bcccf27088"><path d="M 120.078125 277.203125 L 121.527344 277.203125 L 121.527344 278.425781 L 120.078125 278.425781 Z M 120.078125 277.203125 " clip-rule="nonzero"/></clipPath><clipPath id="f8e4b9ef39"><path d="M 121.5 277.648438 C 120.898438 278.625 120.300781 278.476562 120.148438 278.25 C 120 278.023438 120.148438 277.425781 120.300781 277.273438 C 120.523438 277.125 121.351562 277.351562 121.351562 277.351562 " clip-rule="nonzero"/></clipPath><clipPath id="ddd87a673e"><path d="M 119.703125 277.351562 L 121.152344 277.351562 L 121.152344 278.601562 L 119.703125 278.601562 Z M 119.703125 277.351562 " clip-rule="nonzero"/></clipPath><clipPath id="eeb53faab3"><path d="M 121.125 277.800781 C 120.523438 278.851562 119.925781 278.625 119.773438 278.398438 C 119.625 278.25 119.773438 277.574219 119.925781 277.425781 C 120.148438 277.273438 120.976562 277.5 120.976562 277.5 " clip-rule="nonzero"/></clipPath><clipPath id="f9bb691f2b"><path d="M 120.273438 278.328125 L 121.75 278.328125 L 121.75 279.578125 L 120.273438 279.578125 Z M 120.273438 278.328125 " clip-rule="nonzero"/></clipPath><clipPath id="3301d9f52f"><path d="M 121.726562 278.773438 C 121.050781 279.824219 120.449219 279.601562 120.375 279.375 C 120.226562 279.148438 120.300781 278.550781 120.523438 278.398438 C 120.75 278.25 121.5 278.476562 121.5 278.476562 " clip-rule="nonzero"/></clipPath><clipPath id="d6a64409b9"><path d="M 120.378906 277.578125 L 121.828125 277.578125 L 121.828125 278.800781 L 120.378906 278.800781 Z M 120.378906 277.578125 " clip-rule="nonzero"/></clipPath><clipPath id="8faa083271"><path d="M 121.800781 278.023438 C 121.125 279 120.601562 278.851562 120.449219 278.625 C 120.300781 278.398438 120.449219 277.800781 120.601562 277.648438 C 120.824219 277.5 121.574219 277.726562 121.574219 277.726562 " clip-rule="nonzero"/></clipPath><clipPath id="1075397083"><path d="M 113.410156 278.492188 L 114.832031 278.492188 L 114.832031 279.714844 L 113.410156 279.714844 Z M 113.410156 278.492188 " clip-rule="nonzero"/></clipPath><clipPath id="7602106c8b"><path d="M 114.804688 278.941406 C 114.207031 279.914062 113.605469 279.765625 113.457031 279.539062 C 113.378906 279.316406 113.457031 278.714844 113.679688 278.566406 C 113.832031 278.414062 114.65625 278.640625 114.65625 278.640625 " clip-rule="nonzero"/></clipPath><clipPath id="372d3e874e"><path d="M 119.523438 278.328125 L 121 278.328125 L 121 279.550781 L 119.523438 279.550781 Z M 119.523438 278.328125 " clip-rule="nonzero"/></clipPath><clipPath id="017fcca8db"><path d="M 120.976562 278.773438 C 120.300781 279.75 119.699219 279.601562 119.625 279.375 C 119.476562 279.148438 119.550781 278.550781 119.773438 278.398438 C 120 278.25 120.75 278.476562 120.75 278.476562 " clip-rule="nonzero"/></clipPath><clipPath id="768b5bbdb6"><path d="M 186.472656 63.574219 L 193.019531 63.574219 L 193.019531 66.175781 L 186.472656 66.175781 Z M 186.472656 63.574219 " clip-rule="nonzero"/></clipPath><clipPath id="f7e3025057"><path d="M 191.925781 66.148438 C 188.851562 65.023438 187.125 66.226562 186.75 65.925781 C 186.449219 65.773438 186.449219 64.875 186.601562 64.726562 C 186.824219 64.574219 187.726562 64.875 187.800781 65.101562 C 187.875 65.324219 187.425781 66.074219 187.273438 66 C 187.050781 66 186.449219 65.101562 186.601562 64.800781 C 186.75 64.199219 188.699219 63.601562 189.75 63.601562 C 190.800781 63.675781 192.523438 64.425781 192.898438 64.949219 C 193.050781 65.25 193.050781 65.773438 192.898438 66 C 192.75 66.148438 191.925781 66.148438 191.925781 66.148438 " clip-rule="nonzero"/></clipPath><clipPath id="dd27921b16"><path d="M 189.585938 63.402344 L 192.835938 63.402344 L 192.835938 65.863281 L 189.585938 65.863281 Z M 189.585938 63.402344 " clip-rule="nonzero"/></clipPath><clipPath id="ae6baf570b"><path d="M 191.851562 65.851562 C 189.601562 64.199219 190.5 63.449219 190.648438 63.523438 C 190.800781 63.523438 191.023438 64.574219 190.800781 64.726562 C 190.648438 64.875 189.675781 64.648438 189.601562 64.425781 C 189.523438 64.199219 189.976562 63.523438 190.351562 63.449219 C 190.875 63.300781 192.226562 64.050781 192.601562 64.5 C 192.824219 64.800781 192.898438 65.324219 192.75 65.550781 C 192.601562 65.699219 191.851562 65.851562 191.851562 65.851562 " clip-rule="nonzero"/></clipPath><clipPath id="bab0a67887"><path d="M 189.003906 63.273438 L 190.453125 63.273438 L 190.453125 64.496094 L 189.003906 64.496094 Z M 189.003906 63.273438 " clip-rule="nonzero"/></clipPath><clipPath id="9cd7cd033a"><path d="M 190.425781 63.675781 C 189.824219 64.726562 189.226562 64.5 189.074219 64.351562 C 188.925781 64.125 189.074219 63.523438 189.226562 63.375 C 189.449219 63.148438 190.273438 63.375 190.273438 63.375 " clip-rule="nonzero"/></clipPath><clipPath id="b4a73dc317"><path d="M 282.820312 90.257812 L 284.902344 90.257812 L 284.902344 94.683594 L 282.820312 94.683594 Z M 282.820312 90.257812 " clip-rule="nonzero"/></clipPath><clipPath id="17ebd87554"><path d="M 283.425781 94.125 C 282.675781 90.675781 282.976562 90.300781 283.199219 90.300781 C 283.425781 90.300781 284.101562 90.75 284.101562 90.976562 C 284.023438 91.199219 283.050781 91.800781 282.898438 91.648438 C 282.75 91.574219 282.898438 90.449219 283.125 90.300781 C 283.273438 90.226562 283.726562 90.375 283.949219 90.675781 C 284.398438 91.125 285 93 284.851562 93.75 C 284.851562 94.125 284.550781 94.648438 284.25 94.648438 C 284.023438 94.726562 283.425781 94.125 283.425781 94.125 " clip-rule="nonzero"/></clipPath><clipPath id="54af94b3ed"><path d="M 316.28125 185.6875 L 318.011719 185.6875 L 318.011719 191.402344 L 316.28125 191.402344 Z M 316.28125 185.6875 " clip-rule="nonzero"/></clipPath><clipPath id="163c8237ea"><path d="M 318 186.375 C 317.625 191.324219 316.574219 190.800781 316.5 190.574219 C 316.5 190.425781 317.101562 189.898438 317.398438 189.898438 C 317.625 189.976562 318.074219 190.5 318 190.800781 C 318 191.023438 317.550781 191.398438 317.324219 191.398438 C 317.101562 191.398438 316.726562 191.101562 316.5 190.648438 C 316.199219 189.824219 316.199219 186.898438 316.574219 186.148438 C 316.726562 185.851562 317.023438 185.699219 317.25 185.699219 C 317.550781 185.699219 318 186.375 318 186.375 " clip-rule="nonzero"/></clipPath><clipPath id="96e4377e6a"><path d="M 318.003906 188.328125 L 319.453125 188.328125 L 319.453125 189.550781 L 318.003906 189.550781 Z M 318.003906 188.328125 " clip-rule="nonzero"/></clipPath><clipPath id="03f975f251"><path d="M 319.425781 188.773438 C 318.824219 189.75 318.226562 189.601562 318.074219 189.375 C 317.925781 189.148438 318.074219 188.550781 318.226562 188.398438 C 318.449219 188.25 319.273438 188.476562 319.273438 188.476562 " clip-rule="nonzero"/></clipPath><clipPath id="9d8be5f92b"><path d="M 316.789062 186.0625 L 318.429688 186.0625 L 318.429688 189.609375 L 316.789062 189.609375 Z M 316.789062 186.0625 " clip-rule="nonzero"/></clipPath><clipPath id="1c53ffb8d6"><path d="M 316.800781 188.851562 C 317.175781 186.148438 318.300781 186.75 318.300781 186.898438 C 318.226562 187.050781 317.101562 187.5 316.949219 187.351562 C 316.875 187.199219 317.25 186.148438 317.476562 186.074219 C 317.699219 186 318.074219 186.300781 318.226562 186.601562 C 318.449219 187.050781 318.449219 188.324219 318.300781 188.851562 C 318.148438 189.226562 317.851562 189.601562 317.625 189.601562 C 317.324219 189.601562 316.800781 188.851562 316.800781 188.851562 " clip-rule="nonzero"/></clipPath><clipPath id="33632ca67d"><path d="M 263 277.324219 L 271.984375 277.324219 L 271.984375 281.578125 L 263 281.578125 Z M 263 277.324219 " clip-rule="nonzero"/></clipPath><clipPath id="d59da1fcc7"><path d="M 263.625 280.050781 C 271.875 277.5 272.023438 278.324219 271.949219 278.476562 C 271.800781 278.625 270.601562 278.398438 270.601562 278.175781 C 270.523438 278.023438 271.5 277.273438 271.648438 277.351562 C 271.875 277.425781 272.023438 278.175781 271.800781 278.550781 C 271.351562 279.449219 268.5 280.574219 267 281.023438 C 265.800781 281.398438 264.148438 281.699219 263.550781 281.476562 C 263.25 281.398438 263.023438 281.023438 263.023438 280.800781 C 263.023438 280.574219 263.625 280.050781 263.625 280.050781 " clip-rule="nonzero"/></clipPath><clipPath id="420e3d1bf0"><path d="M 262.375 276.777344 L 272.277344 276.777344 L 272.277344 282.816406 L 262.375 282.816406 Z M 262.375 276.777344 " clip-rule="nonzero"/></clipPath><clipPath id="9f8cb4693c"><path d="M 272.25 277.800781 C 270.148438 281.550781 269.476562 282.148438 268.5 282.449219 C 267.074219 282.898438 263.699219 282.976562 262.949219 282.449219 C 262.574219 282.226562 262.425781 281.699219 262.5 281.476562 C 262.5 281.25 263.023438 280.949219 263.25 280.949219 C 263.476562 281.023438 263.925781 281.625 263.925781 281.851562 C 263.851562 282.074219 263.25 282.523438 263.023438 282.449219 C 262.726562 282.375 262.351562 281.773438 262.425781 281.550781 C 262.726562 280.949219 266.925781 281.398438 268.351562 280.800781 C 269.25 280.425781 269.851562 279.824219 270.300781 279.148438 C 270.75 278.550781 270.675781 277.273438 271.050781 276.976562 C 271.273438 276.824219 271.648438 276.75 271.875 276.824219 C 272.101562 276.976562 272.25 277.800781 272.25 277.800781 " clip-rule="nonzero"/></clipPath><clipPath id="504690897b"><path d="M 262.792969 277.195312 L 272.632812 277.195312 L 272.632812 282.328125 L 262.792969 282.328125 Z M 262.792969 277.195312 " clip-rule="nonzero"/></clipPath><clipPath id="31f2e22f5f"><path d="M 272.625 278.023438 C 269.925781 281.925781 264.75 282.675781 263.625 282.148438 C 263.101562 281.925781 262.800781 281.101562 262.875 280.949219 C 263.023438 280.726562 264 280.800781 264.148438 280.949219 C 264.300781 281.175781 263.925781 282.074219 263.699219 282.074219 C 263.476562 282.148438 262.726562 281.476562 262.800781 281.25 C 262.949219 280.574219 269.476562 280.574219 270.75 279.523438 C 271.425781 278.925781 271.199219 277.273438 271.648438 277.199219 C 271.949219 277.125 272.625 278.023438 272.625 278.023438 " clip-rule="nonzero"/></clipPath><clipPath id="ca857db337"><path d="M 110.605469 275.304688 L 121.558594 275.304688 L 121.558594 281.644531 L 110.605469 281.644531 Z M 110.605469 275.304688 " clip-rule="nonzero"/></clipPath><clipPath id="097fbaa773"><path d="M 111.976562 275.699219 C 116.175781 280.351562 120 279.226562 120.976562 279.75 C 121.351562 279.976562 121.574219 280.351562 121.5 280.574219 C 121.5 280.800781 120.976562 281.25 120.75 281.25 C 120.523438 281.175781 120.074219 280.199219 120.226562 279.976562 C 120.300781 279.824219 121.351562 279.898438 121.425781 280.125 C 121.574219 280.273438 121.125 281.175781 120.898438 281.25 C 120.675781 281.25 120 280.5 120.074219 280.273438 C 120.074219 280.050781 121.050781 279.75 121.199219 279.824219 C 121.425781 279.976562 121.425781 280.875 121.125 281.175781 C 120.75 281.550781 119.699219 281.550781 118.726562 281.550781 C 117.449219 281.625 115.574219 281.773438 114.226562 281.023438 C 112.800781 280.199219 110.773438 277.425781 110.625 276.375 C 110.550781 275.925781 110.773438 275.398438 111 275.324219 C 111.226562 275.25 111.976562 275.699219 111.976562 275.699219 " clip-rule="nonzero"/></clipPath><clipPath id="a7c2429a98"><path d="M 55.015625 182 L 59.875 182 L 59.875 194.652344 L 55.015625 194.652344 Z M 55.015625 182 " clip-rule="nonzero"/></clipPath><clipPath id="95e9a778e3"><path d="M 58.875 183.074219 C 56.550781 189.75 56.625 190.199219 56.925781 190.800781 C 57.449219 191.773438 59.625 192.976562 59.851562 193.648438 C 59.925781 194.023438 59.773438 194.398438 59.550781 194.550781 C 59.398438 194.699219 58.648438 194.550781 58.5 194.324219 C 58.351562 194.175781 58.800781 193.199219 58.949219 193.199219 C 59.175781 193.199219 59.851562 194.101562 59.773438 194.324219 C 59.699219 194.476562 59.101562 194.699219 58.726562 194.550781 C 58.125 194.476562 57.074219 193.425781 56.476562 192.601562 C 55.800781 191.773438 55.351562 190.648438 55.125 189.601562 C 54.976562 188.699219 54.976562 187.875 55.273438 186.824219 C 55.648438 185.476562 56.773438 183.074219 57.523438 182.398438 C 57.824219 182.175781 58.199219 181.949219 58.425781 182.023438 C 58.648438 182.175781 58.875 183.074219 58.875 183.074219 " clip-rule="nonzero"/></clipPath><clipPath id="1bac15e8db"><path d="M 56.496094 181.304688 L 61.320312 181.304688 L 61.320312 194.78125 L 56.496094 194.78125 Z M 56.496094 181.304688 " clip-rule="nonzero"/></clipPath><clipPath id="ee804be1c9"><path d="M 59.925781 182.324219 C 58.351562 191.25 61.574219 193.648438 61.273438 194.324219 C 61.125 194.625 60.300781 194.773438 60.074219 194.625 C 59.925781 194.476562 59.851562 193.726562 60 193.574219 C 60.226562 193.351562 61.050781 193.425781 61.125 193.574219 C 61.199219 193.726562 60.75 194.699219 60.375 194.773438 C 59.773438 194.851562 58.5 193.351562 57.898438 192.523438 C 57.300781 191.699219 56.851562 190.949219 56.625 189.976562 C 56.398438 188.851562 56.550781 187.5 56.773438 186.226562 C 57.074219 184.800781 57.898438 182.476562 58.574219 181.800781 C 58.800781 181.425781 59.175781 181.273438 59.398438 181.351562 C 59.699219 181.425781 59.925781 182.324219 59.925781 182.324219 " clip-rule="nonzero"/></clipPath><clipPath id="fa300441a3"><path d="M 95.03125 89.554688 L 97.929688 89.554688 L 97.929688 95.351562 L 95.03125 95.351562 Z M 95.03125 89.554688 " clip-rule="nonzero"/></clipPath><clipPath id="98df099331"><path d="M 96.523438 91.199219 C 96.976562 95.023438 96.675781 95.25 96.449219 95.324219 C 96.226562 95.324219 95.773438 95.101562 95.625 94.726562 C 95.324219 93.976562 96.074219 89.925781 96.675781 89.625 C 96.976562 89.476562 97.425781 89.773438 97.648438 90.148438 C 98.023438 90.824219 97.949219 93.226562 97.648438 93.976562 C 97.574219 94.351562 97.351562 94.648438 97.125 94.648438 C 96.898438 94.726562 96.226562 94.351562 96.226562 94.125 C 96.148438 93.898438 96.601562 93.226562 96.824219 93.226562 C 97.050781 93.226562 97.726562 93.976562 97.648438 94.125 C 97.574219 94.273438 96.523438 94.5 96.226562 94.199219 C 95.699219 93.675781 96.148438 89.851562 96.675781 89.625 C 96.898438 89.476562 97.5 89.925781 97.648438 90.300781 C 98.023438 91.125 97.574219 93.976562 97.125 94.726562 C 96.898438 95.101562 96.523438 95.324219 96.300781 95.324219 C 96.074219 95.25 95.851562 95.023438 95.625 94.726562 C 95.25 94.125 94.875 91.726562 95.101562 91.125 C 95.25 90.75 95.550781 90.601562 95.773438 90.601562 C 96 90.601562 96.523438 91.199219 96.523438 91.199219 " clip-rule="nonzero"/></clipPath><clipPath id="e4bcca9bb7"><path d="M 186.464844 65.671875 L 190.601562 65.671875 L 190.601562 67.574219 L 186.464844 67.574219 Z M 186.464844 65.671875 " clip-rule="nonzero"/></clipPath><clipPath id="7c640dd0a1"><path d="M 186.675781 65.925781 C 190.648438 65.925781 190.648438 66.898438 190.5 66.976562 C 190.273438 67.125 189.375 66.675781 189.375 66.449219 C 189.300781 66.226562 190.273438 65.625 190.5 65.699219 C 190.648438 65.773438 190.648438 66.75 190.351562 67.050781 C 189.824219 67.574219 187.050781 67.726562 186.601562 67.351562 C 186.300781 67.050781 186.675781 65.925781 186.675781 65.925781 " clip-rule="nonzero"/></clipPath><clipPath id="a5c6187373"><path d="M 186.707031 65.761719 L 189.90625 65.761719 L 189.90625 67.496094 L 186.707031 67.496094 Z M 186.707031 65.761719 " clip-rule="nonzero"/></clipPath><clipPath id="6f76ecdaa3"><path d="M 187.425781 65.773438 C 189.976562 65.925781 188.398438 65.699219 188.324219 65.851562 C 188.25 66 189 66.300781 189 66.523438 C 189.074219 66.824219 188.625 67.351562 188.398438 67.351562 C 188.175781 67.351562 187.574219 66.300781 187.726562 66.148438 C 187.800781 66 188.851562 66.074219 188.925781 66.300781 C 189.074219 66.449219 188.550781 67.351562 188.324219 67.351562 C 188.175781 67.351562 187.648438 66.148438 187.800781 66 C 187.949219 65.925781 188.925781 66.148438 189 66.375 C 189.074219 66.601562 188.175781 67.199219 188.25 67.351562 C 188.324219 67.574219 189.898438 67.425781 189.898438 67.351562 C 189.898438 67.351562 187.574219 67.5 187.050781 67.125 C 186.824219 66.976562 186.675781 66.449219 186.75 66.226562 C 186.824219 66 187.425781 65.773438 187.425781 65.773438 " clip-rule="nonzero"/></clipPath><clipPath id="2faa5a8ca8"><path d="M 186.671875 65.125 L 190.75 65.125 L 190.75 67.683594 L 186.671875 67.683594 Z M 186.671875 65.125 " clip-rule="nonzero"/></clipPath><clipPath id="f4f02d360f"><path d="M 186.675781 66.898438 C 187.574219 64.648438 190.199219 65.023438 190.425781 65.476562 C 190.574219 65.773438 189.976562 66.824219 189.824219 66.824219 C 189.675781 66.824219 189.300781 65.625 189.449219 65.476562 C 189.601562 65.398438 190.648438 65.851562 190.726562 66.074219 C 190.726562 66.300781 190.273438 66.75 189.898438 66.824219 C 189.449219 66.898438 188.550781 66.074219 188.175781 66.300781 C 187.800781 66.449219 187.800781 67.574219 187.5 67.648438 C 187.273438 67.726562 186.675781 66.898438 186.675781 66.898438 " clip-rule="nonzero"/></clipPath><clipPath id="3d6fa8a1cc"><path d="M 118.878906 276.007812 L 121.980469 276.007812 L 121.980469 280.296875 L 118.878906 280.296875 Z M 118.878906 276.007812 " clip-rule="nonzero"/></clipPath><clipPath id="aa51efc977"><path d="M 120.300781 277.273438 C 120.75 278.699219 120 278.476562 119.925781 278.324219 C 119.925781 278.175781 120.523438 277.648438 120.523438 277.648438 C 120.523438 277.648438 119.699219 278.625 119.699219 278.625 C 119.699219 278.625 120.074219 278.023438 120.300781 278.101562 C 120.675781 278.175781 121.574219 279.601562 121.425781 279.898438 C 121.273438 280.125 120.148438 280.125 120.074219 279.976562 C 120 279.824219 120.675781 278.773438 120.824219 278.851562 C 121.050781 278.925781 121.199219 280.199219 120.976562 280.273438 C 120.824219 280.351562 120 279.824219 120 279.601562 C 120 279.375 120.75 278.773438 120.976562 278.851562 C 121.199219 278.925781 121.273438 280.199219 121.199219 280.199219 C 121.125 280.199219 121.050781 279.523438 120.824219 279.449219 C 120.449219 279.226562 119.476562 279.824219 119.175781 279.523438 C 118.726562 279.148438 119.101562 276.601562 119.625 276.148438 C 120.074219 275.851562 121.351562 276.148438 121.648438 276.523438 C 122.023438 276.898438 122.023438 277.800781 121.800781 278.324219 C 121.574219 278.851562 120.75 279.601562 120.300781 279.601562 C 120 279.675781 119.625 279.300781 119.398438 278.925781 C 119.101562 278.550781 118.726562 277.425781 118.949219 277.125 C 119.101562 276.898438 120.300781 277.273438 120.300781 277.273438 " clip-rule="nonzero"/></clipPath><clipPath id="382fd34289"><path d="M 119.582031 278.476562 L 121.058594 278.476562 L 121.058594 279.726562 L 119.582031 279.726562 Z M 119.582031 278.476562 " clip-rule="nonzero"/></clipPath><clipPath id="385301daac"><path d="M 121.050781 278.925781 C 120.375 279.976562 119.773438 279.75 119.625 279.523438 C 119.550781 279.300781 119.625 278.699219 119.851562 278.550781 C 120 278.398438 120.824219 278.625 120.824219 278.625 " clip-rule="nonzero"/></clipPath><clipPath id="6326f68804"><path d="M 120.601562 278.476562 L 122.050781 278.476562 L 122.050781 279.726562 L 120.601562 279.726562 Z M 120.601562 278.476562 " clip-rule="nonzero"/></clipPath><clipPath id="365927fbc4"><path d="M 122.023438 278.925781 C 121.351562 279.976562 120.75 279.75 120.675781 279.523438 C 120.523438 279.300781 120.675781 278.699219 120.824219 278.550781 C 121.050781 278.398438 121.800781 278.625 121.800781 278.625 " clip-rule="nonzero"/></clipPath><clipPath id="ade5f5afb4"><path d="M 242.027344 282.601562 L 243.476562 282.601562 L 243.476562 283.824219 L 242.027344 283.824219 Z M 242.027344 282.601562 " clip-rule="nonzero"/></clipPath><clipPath id="53e732d713"><path d="M 243.449219 283.050781 C 242.851562 284.023438 242.25 283.875 242.101562 283.648438 C 241.949219 283.425781 242.101562 282.824219 242.25 282.675781 C 242.476562 282.523438 243.300781 282.75 243.300781 282.75 " clip-rule="nonzero"/></clipPath><clipPath id="ccebd396ed"><path d="M 243.152344 282.300781 L 244.601562 282.300781 L 244.601562 283.550781 L 243.152344 283.550781 Z M 243.152344 282.300781 " clip-rule="nonzero"/></clipPath><clipPath id="9953e9ff37"><path d="M 244.574219 282.75 C 243.976562 283.800781 243.375 283.574219 243.226562 283.351562 C 243.074219 283.199219 243.226562 282.523438 243.375 282.375 C 243.601562 282.226562 244.425781 282.449219 244.425781 282.449219 " clip-rule="nonzero"/></clipPath><clipPath id="fd94fa2629"><path d="M 242.582031 282.300781 L 244.058594 282.300781 L 244.058594 283.550781 L 242.582031 283.550781 Z M 242.582031 282.300781 " clip-rule="nonzero"/></clipPath><clipPath id="ec9dd4f319"><path d="M 244.050781 282.75 C 243.375 283.800781 242.773438 283.574219 242.625 283.351562 C 242.550781 283.199219 242.625 282.523438 242.851562 282.375 C 243 282.226562 243.824219 282.449219 243.824219 282.449219 " clip-rule="nonzero"/></clipPath><clipPath id="39be599001"><path d="M 269.9375 275 L 272.945312 275 L 272.945312 279.320312 L 269.9375 279.320312 Z M 269.9375 275 " clip-rule="nonzero"/></clipPath><clipPath id="10be603e21"><path d="M 270 278.25 C 272.023438 275.625 272.625 275.851562 272.851562 276.148438 C 273 276.375 272.925781 276.898438 272.773438 277.273438 C 272.476562 277.949219 271.648438 279.148438 271.125 279.300781 C 270.75 279.375 270.148438 279.226562 270 278.925781 C 269.773438 278.398438 270.75 275.699219 271.351562 275.25 C 271.726562 275.023438 272.25 275.023438 272.476562 275.175781 C 272.625 275.324219 272.773438 275.925781 272.625 276.074219 C 272.476562 276.300781 271.574219 276.449219 271.425781 276.226562 C 271.273438 276.074219 271.5 275.101562 271.726562 275.023438 C 271.949219 274.949219 272.625 275.398438 272.699219 275.773438 C 272.925781 276.523438 271.726562 279.148438 271.125 279.300781 C 270.75 279.375 270 278.925781 270 278.625 C 269.925781 278.175781 271.800781 276.75 272.023438 276.898438 C 272.175781 276.976562 271.875 277.949219 271.648438 278.398438 C 271.425781 278.773438 270.824219 279.375 270.601562 279.300781 C 270.300781 279.300781 270 278.25 270 278.25 " clip-rule="nonzero"/></clipPath><clipPath id="bfd5d5d492"><path d="M 270.984375 273.859375 L 272.710938 273.859375 L 272.710938 278.664062 L 270.984375 278.664062 Z M 270.984375 273.859375 " clip-rule="nonzero"/></clipPath><clipPath id="bffb297fc0"><path d="M 272.699219 274.5 C 272.398438 278.398438 271.351562 278.25 271.199219 278.023438 C 271.125 277.875 271.574219 277.199219 271.875 277.125 C 272.101562 277.125 272.699219 277.574219 272.699219 277.800781 C 272.699219 278.023438 272.25 278.625 272.023438 278.625 C 271.726562 278.699219 271.425781 278.398438 271.273438 278.101562 C 270.898438 277.5 270.898438 275.023438 271.273438 274.351562 C 271.425781 274.050781 271.875 273.824219 272.101562 273.898438 C 272.324219 273.898438 272.699219 274.5 272.699219 274.5 " clip-rule="nonzero"/></clipPath><clipPath id="69402bc39c"><path d="M 271.800781 275.101562 L 273.25 275.101562 L 273.25 276.324219 L 271.800781 276.324219 Z M 271.800781 275.101562 " clip-rule="nonzero"/></clipPath><clipPath id="b26d799694"><path d="M 273.226562 275.550781 C 272.625 276.523438 272.023438 276.375 271.875 276.148438 C 271.726562 275.925781 271.875 275.324219 272.101562 275.175781 C 272.25 275.023438 273.074219 275.25 273.074219 275.25 " clip-rule="nonzero"/></clipPath><clipPath id="85e5e7b494"><path d="M 271.097656 278.328125 L 272.578125 278.328125 L 272.578125 279.578125 L 271.097656 279.578125 Z M 271.097656 278.328125 " clip-rule="nonzero"/></clipPath><clipPath id="69e76899a1"><path d="M 272.550781 278.773438 C 271.875 279.824219 271.273438 279.601562 271.199219 279.375 C 271.050781 279.226562 271.125 278.550781 271.351562 278.398438 C 271.574219 278.25 272.324219 278.476562 272.324219 278.476562 " clip-rule="nonzero"/></clipPath><clipPath id="1d3a80d5cd"><path d="M 264.855469 278.777344 L 266.332031 278.777344 L 266.332031 280 L 264.855469 280 Z M 264.855469 278.777344 " clip-rule="nonzero"/></clipPath><clipPath id="2c868d2839"><path d="M 266.324219 279.226562 C 265.648438 280.199219 265.050781 280.050781 264.898438 279.824219 C 264.824219 279.601562 264.898438 279 265.125 278.851562 C 265.273438 278.699219 266.101562 278.925781 266.101562 278.925781 " clip-rule="nonzero"/></clipPath><clipPath id="82f09fa6cd"><path d="M 241.605469 281.628906 L 243 281.628906 L 243 282.847656 L 241.605469 282.847656 Z M 241.605469 281.628906 " clip-rule="nonzero"/></clipPath><clipPath id="1cd8e32adf"><path d="M 243 282.074219 C 242.398438 283.050781 241.800781 282.898438 241.648438 282.675781 C 241.574219 282.449219 241.648438 281.851562 241.875 281.699219 C 242.023438 281.550781 242.851562 281.773438 242.851562 281.773438 " clip-rule="nonzero"/></clipPath><clipPath id="4f16862a37"><path d="M 242.027344 280.800781 L 243.476562 280.800781 L 243.476562 281.996094 L 242.027344 281.996094 Z M 242.027344 280.800781 " clip-rule="nonzero"/></clipPath><clipPath id="5064af5f4a"><path d="M 243.449219 281.175781 C 242.851562 282.226562 242.25 282 242.101562 281.851562 C 241.949219 281.625 242.101562 281.023438 242.25 280.875 C 242.476562 280.726562 243.300781 280.875 243.300781 280.875 " clip-rule="nonzero"/></clipPath><clipPath id="0647718b65"><path d="M 241.726562 282.152344 L 243.175781 282.152344 L 243.175781 283.429688 L 241.726562 283.429688 Z M 241.726562 282.152344 " clip-rule="nonzero"/></clipPath><clipPath id="648463bb0f"><path d="M 243.148438 282.601562 C 242.550781 283.648438 241.949219 283.425781 241.800781 283.273438 C 241.648438 283.050781 241.800781 282.375 242.023438 282.226562 C 242.175781 282.074219 243 282.300781 243 282.300781 " clip-rule="nonzero"/></clipPath></defs><path stroke-linecap="butt" transform="matrix(0, 0.75, -0.75, 0, 191.98174, 65.593949)" fill="none" stroke-linejoin="miter" d="M 14.999735 2.001695 L 109.155991 2.001695 " stroke="#ffffff" stroke-width="4" stroke-opacity="1" stroke-miterlimit="4"/><path stroke-linecap="round" transform="matrix(0, 0.75, -0.75, 0, 191.98174, 65.593949)" fill="none" stroke-linejoin="round" d="M 1.999734 2.001695 C 1.999734 -1.316014 4.687235 -3.998305 7.999735 -3.998305 C 11.312235 -3.998305 13.999735 -1.316014 13.999735 2.001695 C 13.999735 5.314195 11.312235 8.001695 7.999735 8.001695 C 4.687235 8.001695 1.999734 5.314195 1.999734 2.001695 " stroke="#ffffff" stroke-width="4" stroke-opacity="1" stroke-miterlimit="4"/><path fill="#ffffff" d="M 224.585938 156.472656 C 215.722656 147.875 201.546875 147.460938 192.175781 155.261719 C 191.285156 156.007812 190.191406 156.367188 189.101562 156.355469 C 188.015625 156.367188 186.921875 156.007812 186.027344 155.261719 C 176.660156 147.460938 162.480469 147.875 153.617188 156.472656 C 144.820312 165.003906 144.417969 178.527344 152.371094 187.511719 C 152.488281 187.644531 152.597656 187.78125 152.695312 187.921875 L 189.101562 223.234375 L 225.507812 187.921875 C 225.605469 187.78125 225.714844 187.644531 225.832031 187.511719 C 233.785156 178.527344 233.382812 165.003906 224.585938 156.472656 Z M 233.5 193.046875 C 244.140625 180.308594 243.34375 161.539062 231.148438 149.707031 C 219.691406 138.59375 202.003906 137.3125 189.101562 145.828125 C 176.199219 137.3125 158.511719 138.59375 147.054688 149.707031 C 134.859375 161.539062 134.0625 180.308594 144.703125 193.046875 C 144.921875 193.421875 145.1875 193.765625 145.503906 194.074219 L 185.820312 233.179688 C 187.648438 234.953125 190.554688 234.953125 192.382812 233.179688 L 232.699219 194.074219 C 233.015625 193.765625 233.285156 193.421875 233.5 193.046875 Z M 233.5 193.046875 " fill-opacity="1" fill-rule="evenodd"/><path fill="#ffffff" d="M 160.78125 159.125 C 162.648438 159.105469 164.351562 160.1875 165.121094 161.886719 L 173.269531 179.808594 L 180.394531 168.40625 C 181.21875 167.089844 182.636719 166.261719 184.191406 166.195312 C 185.742188 166.132812 187.226562 166.835938 188.160156 168.078125 L 193.8125 175.617188 L 198.523438 175.617188 L 198.523438 185.039062 L 191.457031 185.039062 C 189.976562 185.039062 188.578125 184.339844 187.6875 183.15625 L 184.742188 179.226562 L 176.605469 192.246094 C 175.6875 193.71875 174.03125 194.566406 172.300781 194.453125 C 170.570312 194.335938 169.039062 193.28125 168.324219 191.699219 L 160.960938 175.5 L 158.097656 182.183594 C 157.355469 183.914062 155.652344 185.039062 153.765625 185.039062 L 144.34375 185.039062 L 144.34375 175.617188 L 150.660156 175.617188 L 156.503906 161.980469 C 157.238281 160.265625 158.914062 159.144531 160.78125 159.125 Z M 160.78125 159.125 " fill-opacity="1" fill-rule="evenodd"/><path stroke-linecap="butt" transform="matrix(-0.555848, 0.50352, -0.50352, -0.555848, 284.164908, 93.80667)" fill="none" stroke-linejoin="miter" d="M 14.998325 2.001517 L 105.091076 2.001986 " stroke="#ffffff" stroke-width="4" stroke-opacity="1" stroke-miterlimit="4"/><path stroke-linecap="round" transform="matrix(-0.555848, 0.50352, -0.50352, -0.555848, 284.164908, 93.80667)" fill="none" stroke-linejoin="round" d="M 2.000298 1.998272 C 1.998986 -1.312892 4.68702 -4.000993 8.002045 -3.998809 C 11.313209 -4.000122 14.00131 -1.312088 14.002623 1.999077 C 14.000439 5.314102 11.312405 8.002203 7.99738 8.000019 C 4.686216 8.001331 1.998115 5.313297 2.000298 1.998272 " stroke="#ffffff" stroke-width="4" stroke-opacity="1" stroke-miterlimit="4"/><path stroke-linecap="butt" transform="matrix(-0.749999, -0.00092941, 0.00092941, -0.749999, 142.082954, 189.218983)" fill="none" stroke-linejoin="miter" d="M -0.00149869 2.000314 L 99.587128 2.001902 " stroke="#ffffff" stroke-width="4" stroke-opacity="1" stroke-miterlimit="4"/><path stroke-linecap="round" transform="matrix(-0.749999, -0.00092941, 0.00092941, -0.749999, 142.082954, 189.218983)" fill="none" stroke-linejoin="round" d="M 112.587138 2.001418 C 112.586035 5.313922 109.901861 7.999542 106.589356 7.998438 C 103.27165 8.00255 100.586024 5.313167 100.587127 2.000663 C 100.588231 -1.311841 103.272405 -3.997461 106.584903 -4.001566 C 109.902615 -4.000469 112.588235 -1.316295 112.587138 2.001418 " stroke="#ffffff" stroke-width="4" stroke-opacity="1" stroke-miterlimit="4"/><path stroke-linecap="butt" transform="matrix(0.719378, -0.212121, 0.212121, 0.719378, 96.835201, 91.232183)" fill="none" stroke-linejoin="miter" d="M -0.00243773 2.000583 L 127.673749 2.00165 " stroke="#ffffff" stroke-width="4" stroke-opacity="1" stroke-miterlimit="4"/><path stroke-linecap="butt" transform="matrix(0.580039, 0.475452, -0.475452, 0.580039, 98.186556, 91.504192)" fill="none" stroke-linejoin="miter" d="M 15.002 1.999776 L 115.24418 1.999398 " stroke="#ffffff" stroke-width="4" stroke-opacity="1" stroke-miterlimit="4"/><path stroke-linecap="round" transform="matrix(0.580039, 0.475452, -0.475452, 0.580039, 98.186556, 91.504192)" fill="none" stroke-linejoin="round" d="M 1.997165 1.999061 C 2.000034 -1.316647 4.685944 -3.996409 8.002378 -4.00087 C 11.314784 -4.002029 14.001876 -1.315392 13.999007 2.000316 C 14.000166 5.312722 11.31353 7.999814 8.001124 8.000973 C 4.685416 7.998104 2.001626 5.315495 1.997165 1.999061 " stroke="#ffffff" stroke-width="4" stroke-opacity="1" stroke-miterlimit="4"/><path stroke-linecap="butt" transform="matrix(0.75, 0.00000000000000019, -0.00000000000000019, 0.75, 232.88098, 186.218983)" fill="none" stroke-linejoin="miter" d="M 0.00244386 1.99969 L 96.913909 1.99969 " stroke="#ffffff" stroke-width="4" stroke-opacity="1" stroke-miterlimit="4"/><path stroke-linecap="round" transform="matrix(0.75, 0.00000000000000019, -0.00000000000000019, 0.75, 232.88098, 186.218983)" fill="none" stroke-linejoin="round" d="M 109.913909 1.99969 C 109.913909 5.31219 107.226409 7.99969 103.913909 7.99969 C 100.601409 7.99969 97.913909 5.31219 97.913909 1.99969 C 97.913909 -1.312811 100.601409 -4.000311 103.913909 -4.000311 C 107.226409 -4.000311 109.913909 -1.312811 109.913909 1.99969 " stroke="#ffffff" stroke-width="4" stroke-opacity="1" stroke-miterlimit="4"/><path stroke-linecap="butt" transform="matrix(0.442388, -0.605635, 0.605635, 0.442388, 112.219156, 278.316543)" fill="none" stroke-linejoin="miter" d="M 14.999716 2.000485 L 114.487879 1.999488 " stroke="#ffffff" stroke-width="4" stroke-opacity="1" stroke-miterlimit="4"/><path stroke-linecap="round" transform="matrix(0.442388, -0.605635, 0.605635, 0.442388, 112.219156, 278.316543)" fill="none" stroke-linejoin="round" d="M 2.002852 1.999908 C 2.000948 -1.313923 4.689247 -3.999982 7.998872 -3.998814 C 11.312702 -4.000719 13.998761 -1.312419 14.000666 2.001411 C 13.999498 5.311036 11.314271 8.001301 7.997368 7.999 C 4.687744 7.997832 1.997479 5.312604 2.002852 1.999908 " stroke="#ffffff" stroke-width="4" stroke-opacity="1" stroke-miterlimit="4"/><path stroke-linecap="butt" transform="matrix(-0.452066, -0.598445, 0.598445, -0.452066, 268.092145, 280.260481)" fill="none" stroke-linejoin="miter" d="M 15.001006 2.000369 L 115.807856 2.002087 " stroke="#ffffff" stroke-width="4" stroke-opacity="1" stroke-miterlimit="4"/><path stroke-linecap="round" transform="matrix(-0.452066, -0.598445, 0.598445, -0.452066, 268.092145, 280.260481)" fill="none" stroke-linejoin="round" d="M 1.997799 2.001371 C 2.00089 -1.31218 4.686225 -4.002938 7.999776 -3.999847 C 11.316466 -4.000912 13.999929 -1.314561 14.000994 2.00213 C 14.001042 5.311525 11.311552 7.999143 8.002157 7.999192 C 4.685466 8.000257 2.002004 5.313906 1.997799 2.001371 " stroke="#ffffff" stroke-width="4" stroke-opacity="1" stroke-miterlimit="4"/><path stroke-linecap="butt" transform="matrix(0.289255, -0.691976, 0.691976, 0.289255, 56.770856, 185.639813)" fill="none" stroke-linejoin="miter" d="M 0.000215726 2.001992 L 135.187 1.999225 " stroke="#ffffff" stroke-width="4" stroke-opacity="1" stroke-miterlimit="4"/><path stroke-linecap="butt" transform="matrix(-0.387148, -0.642352, 0.642352, -0.387148, 110.930541, 278.194551)" fill="none" stroke-linejoin="miter" d="M -0.00157305 1.998426 L 139.65215 1.998825 " stroke="#ffffff" stroke-width="4" stroke-opacity="1" stroke-miterlimit="4"/><path stroke-linecap="butt" transform="matrix(0.749979, 0.00556535, -0.00556535, 0.749979, 120.781213, 277.540734)" fill="none" stroke-linejoin="miter" d="M -0.000751326 1.997832 L 192.186855 1.998794 " stroke="#ffffff" stroke-width="4" stroke-opacity="1" stroke-miterlimit="4"/><path stroke-linecap="butt" transform="matrix(0.342763, -0.667093, 0.667093, 0.342763, 269.391287, 276.737091)" fill="none" stroke-linejoin="miter" d="M 0.00154497 2.000839 L 134.469562 1.999562 " stroke="#ffffff" stroke-width="4" stroke-opacity="1" stroke-miterlimit="4"/><path stroke-linecap="butt" transform="matrix(-0.25375, -0.70577, 0.70577, -0.25375, 315.405248, 188.226213)" fill="none" stroke-linejoin="miter" d="M 0.00012671 1.999505 L 134.670925 2.000631 " stroke="#ffffff" stroke-width="4" stroke-opacity="1" stroke-miterlimit="4"/><path stroke-linecap="butt" transform="matrix(-0.720952, -0.206708, 0.206708, -0.720952, 282.997076, 93.675169)" fill="none" stroke-linejoin="miter" d="M 0.0000230041 1.998454 L 128.905106 2.002159 " stroke="#ffffff" stroke-width="4" stroke-opacity="1" stroke-miterlimit="4"/><g clip-path="url(#459c14fb7f)"><g clip-path="url(#7d45d9d6b6)"><path fill="#000000" d="M 186.601562 60.601562 L 194.015625 60.601562 L 194.015625 67.875 L 186.601562 67.875 Z M 186.601562 60.601562 " fill-opacity="1" fill-rule="nonzero"/></g></g><g clip-path="url(#498761ff9a)"><g clip-path="url(#5bd3285a65)"><path fill="#000000" d="M 186 61.273438 L 193.417969 61.273438 L 193.417969 68.550781 L 186 68.550781 Z M 186 61.273438 " fill-opacity="1" fill-rule="nonzero"/></g></g><g clip-path="url(#23af0c1d1f)"><g clip-path="url(#bd2dccd634)"><path fill="#000000" d="M 185.851562 61.425781 L 194.992188 61.425781 L 194.992188 68.925781 L 185.851562 68.925781 Z M 185.851562 61.425781 " fill-opacity="1" fill-rule="nonzero"/></g></g><g clip-path="url(#b8a68b2511)"><g clip-path="url(#60b268f5f7)"><path fill="#000000" d="M 183.898438 60.898438 L 195.21875 60.898438 L 195.21875 69.523438 L 183.898438 69.523438 Z M 183.898438 60.898438 " fill-opacity="1" fill-rule="nonzero"/></g></g><g clip-path="url(#74ee7663a5)"><g clip-path="url(#7faf366676)"><path fill="#000000" d="M 92.925781 88.050781 L 100.574219 88.050781 L 100.574219 97.285156 L 92.925781 97.285156 Z M 92.925781 88.050781 " fill-opacity="1" fill-rule="nonzero"/></g></g><g clip-path="url(#a2ac118e5a)"><g clip-path="url(#ccf23a5450)"><path fill="#000000" d="M 279.601562 87.75 L 287.625 87.75 L 287.625 96.808594 L 279.601562 96.808594 Z M 279.601562 87.75 " fill-opacity="1" fill-rule="nonzero"/></g></g><g clip-path="url(#75503090b9)"><g clip-path="url(#86a07e3ee0)"><path fill="#000000" d="M 313.273438 184.273438 L 320.691406 184.273438 L 320.691406 191.550781 L 313.273438 191.550781 Z M 313.273438 184.273438 " fill-opacity="1" fill-rule="nonzero"/></g></g><g clip-path="url(#e2bb0ca2c3)"><g clip-path="url(#fb021fbc77)"><path fill="#000000" d="M 313.949219 184.648438 L 321.367188 184.648438 L 321.367188 191.925781 L 313.949219 191.925781 Z M 313.949219 184.648438 " fill-opacity="1" fill-rule="nonzero"/></g></g><g clip-path="url(#bdbb1c3972)"><g clip-path="url(#dcd03b1b14)"><path fill="#000000" d="M 313.800781 183.226562 L 321.21875 183.226562 L 321.21875 190.5 L 313.800781 190.5 Z M 313.800781 183.226562 " fill-opacity="1" fill-rule="nonzero"/></g></g><g clip-path="url(#c7143a98f7)"><g clip-path="url(#aa1e1ae01b)"><path fill="#000000" d="M 313.949219 184.125 L 321.367188 184.125 L 321.367188 191.398438 L 313.949219 191.398438 Z M 313.949219 184.125 " fill-opacity="1" fill-rule="nonzero"/></g></g><g clip-path="url(#bf16f96b2d)"><g clip-path="url(#452687fc51)"><path fill="#000000" d="M 53.175781 183.976562 L 60.59375 183.976562 L 60.59375 191.25 L 53.175781 191.25 Z M 53.175781 183.976562 " fill-opacity="1" fill-rule="nonzero"/></g></g><g clip-path="url(#7429918d28)"><g clip-path="url(#a0182f6cbd)"><path fill="#000000" d="M 53.925781 181.351562 L 61.34375 181.351562 L 61.34375 188.625 L 53.925781 188.625 Z M 53.925781 181.351562 " fill-opacity="1" fill-rule="nonzero"/></g></g><g clip-path="url(#172930c812)"><g clip-path="url(#92403bc279)"><path fill="#000000" d="M 52.949219 180.300781 L 62.324219 180.300781 L 62.324219 192.898438 L 52.949219 192.898438 Z M 52.949219 180.300781 " fill-opacity="1" fill-rule="nonzero"/></g></g><g clip-path="url(#b03ca03f5a)"><g clip-path="url(#fcbd9c6030)"><path fill="#000000" d="M 266.851562 275.625 L 274.265625 275.625 L 274.265625 282.898438 L 266.851562 282.898438 Z M 266.851562 275.625 " fill-opacity="1" fill-rule="nonzero"/></g></g><g clip-path="url(#be8f24b4c6)"><g clip-path="url(#40e207ae85)"><path fill="#000000" d="M 268.199219 274.726562 L 275.617188 274.726562 L 275.617188 282 L 268.199219 282 Z M 268.199219 274.726562 " fill-opacity="1" fill-rule="nonzero"/></g></g><g clip-path="url(#7dfaa79ea7)"><g clip-path="url(#9bc5184684)"><path fill="#000000" d="M 267.300781 274.425781 L 274.71875 274.425781 L 274.71875 281.699219 L 267.300781 281.699219 Z M 267.300781 274.425781 " fill-opacity="1" fill-rule="nonzero"/></g></g><g clip-path="url(#84f62c1ada)"><g clip-path="url(#ddcbcfa578)"><path fill="#000000" d="M 267.148438 275.324219 L 274.566406 275.324219 L 274.566406 282.601562 L 267.148438 282.601562 Z M 267.148438 275.324219 " fill-opacity="1" fill-rule="nonzero"/></g></g><g clip-path="url(#cecb8c47f2)"><g clip-path="url(#642584eefd)"><path fill="#000000" d="M 265.050781 274.425781 L 275.414062 274.425781 L 275.414062 283.800781 L 265.050781 283.800781 Z M 265.050781 274.425781 " fill-opacity="1" fill-rule="nonzero"/></g></g><g clip-path="url(#e53a0545a6)"><g clip-path="url(#e452dfef23)"><path fill="#000000" d="M 261.898438 276.375 L 271.859375 276.375 L 271.859375 283.875 L 261.898438 283.875 Z M 261.898438 276.375 " fill-opacity="1" fill-rule="nonzero"/></g></g><g clip-path="url(#d0b198495d)"><g clip-path="url(#70dd97a640)"><path fill="#000000" d="M 239.476562 279.375 L 246.890625 279.375 L 246.890625 286.648438 L 239.476562 286.648438 Z M 239.476562 279.375 " fill-opacity="1" fill-rule="nonzero"/></g></g><g clip-path="url(#026595764a)"><g clip-path="url(#72aa7008b5)"><path fill="#000000" d="M 267.300781 271.726562 L 275.625 271.726562 L 275.625 281.480469 L 267.300781 281.480469 Z M 267.300781 271.726562 " fill-opacity="1" fill-rule="nonzero"/></g></g><g clip-path="url(#25eedc5460)"><g clip-path="url(#7c20d0c955)"><path fill="#000000" d="M 117.375 273.675781 L 124.792969 273.675781 L 124.792969 280.949219 L 117.375 280.949219 Z M 117.375 273.675781 " fill-opacity="1" fill-rule="nonzero"/></g></g><g clip-path="url(#e7cbdbbe8e)"><g clip-path="url(#442deb349f)"><path fill="#000000" d="M 116.398438 274.050781 L 123.816406 274.050781 L 123.816406 281.324219 L 116.398438 281.324219 Z M 116.398438 274.050781 " fill-opacity="1" fill-rule="nonzero"/></g></g><g clip-path="url(#bcccf27088)"><g clip-path="url(#f8e4b9ef39)"><path fill="#000000" d="M 117.148438 274.273438 L 124.566406 274.273438 L 124.566406 281.550781 L 117.148438 281.550781 Z M 117.148438 274.273438 " fill-opacity="1" fill-rule="nonzero"/></g></g><g clip-path="url(#ddd87a673e)"><g clip-path="url(#eeb53faab3)"><path fill="#000000" d="M 116.773438 274.425781 L 124.191406 274.425781 L 124.191406 281.699219 L 116.773438 281.699219 Z M 116.773438 274.425781 " fill-opacity="1" fill-rule="nonzero"/></g></g><g clip-path="url(#f9bb691f2b)"><g clip-path="url(#3301d9f52f)"><path fill="#000000" d="M 117.375 275.398438 L 124.792969 275.398438 L 124.792969 282.675781 L 117.375 282.675781 Z M 117.375 275.398438 " fill-opacity="1" fill-rule="nonzero"/></g></g><g clip-path="url(#d6a64409b9)"><g clip-path="url(#8faa083271)"><path fill="#000000" d="M 117.449219 274.648438 L 124.867188 274.648438 L 124.867188 281.925781 L 117.449219 281.925781 Z M 117.449219 274.648438 " fill-opacity="1" fill-rule="nonzero"/></g></g><g clip-path="url(#1075397083)"><g clip-path="url(#7602106c8b)"><path fill="#000000" d="M 110.457031 275.566406 L 117.871094 275.566406 L 117.871094 282.839844 L 110.457031 282.839844 Z M 110.457031 275.566406 " fill-opacity="1" fill-rule="nonzero"/></g></g><g clip-path="url(#372d3e874e)"><g clip-path="url(#017fcca8db)"><path fill="#000000" d="M 116.625 275.398438 L 124.042969 275.398438 L 124.042969 282.675781 L 116.625 282.675781 Z M 116.625 275.398438 " fill-opacity="1" fill-rule="nonzero"/></g></g><g clip-path="url(#768b5bbdb6)"><g clip-path="url(#f7e3025057)"><path fill="#ffffff" d="M 183.601562 60.601562 L 195.992188 60.601562 L 195.992188 69.148438 L 183.601562 69.148438 Z M 183.601562 60.601562 " fill-opacity="1" fill-rule="nonzero"/></g></g><g clip-path="url(#dd27921b16)"><g clip-path="url(#ae6baf570b)"><path fill="#ffffff" d="M 186.601562 60.449219 L 195.753906 60.449219 L 195.753906 68.851562 L 186.601562 68.851562 Z M 186.601562 60.449219 " fill-opacity="1" fill-rule="nonzero"/></g></g><g clip-path="url(#bab0a67887)"><g clip-path="url(#9cd7cd033a)"><path fill="#ffffff" d="M 186.074219 60.375 L 193.492188 60.375 L 193.492188 67.648438 L 186.074219 67.648438 Z M 186.074219 60.375 " fill-opacity="1" fill-rule="nonzero"/></g></g><g clip-path="url(#b4a73dc317)"><g clip-path="url(#17ebd87554)"><path fill="#ffffff" d="M 279.601562 87.300781 L 287.925781 87.300781 L 287.925781 97.738281 L 279.601562 97.738281 Z M 279.601562 87.300781 " fill-opacity="1" fill-rule="nonzero"/></g></g><g clip-path="url(#54af94b3ed)"><g clip-path="url(#163c8237ea)"><path fill="#ffffff" d="M 313.5 182.699219 L 321 182.699219 L 321 194.390625 L 313.5 194.390625 Z M 313.5 182.699219 " fill-opacity="1" fill-rule="nonzero"/></g></g><g clip-path="url(#96e4377e6a)"><g clip-path="url(#03f975f251)"><path fill="#ffffff" d="M 315.074219 185.398438 L 322.492188 185.398438 L 322.492188 192.675781 L 315.074219 192.675781 Z M 315.074219 185.398438 " fill-opacity="1" fill-rule="nonzero"/></g></g><g clip-path="url(#9d8be5f92b)"><g clip-path="url(#1c53ffb8d6)"><path fill="#ffffff" d="M 313.800781 183.074219 L 321.300781 183.074219 L 321.300781 192.683594 L 313.800781 192.683594 Z M 313.800781 183.074219 " fill-opacity="1" fill-rule="nonzero"/></g></g><g clip-path="url(#33632ca67d)"><g clip-path="url(#d59da1fcc7)"><path fill="#ffffff" d="M 260.023438 274.273438 L 274.957031 274.273438 L 274.957031 284.550781 L 260.023438 284.550781 Z M 260.023438 274.273438 " fill-opacity="1" fill-rule="nonzero"/></g></g><g clip-path="url(#420e3d1bf0)"><g clip-path="url(#9f8cb4693c)"><path fill="#ffffff" d="M 259.425781 273.824219 L 275.320312 273.824219 L 275.320312 285.449219 L 259.425781 285.449219 Z M 259.425781 273.824219 " fill-opacity="1" fill-rule="nonzero"/></g></g><g clip-path="url(#504690897b)"><g clip-path="url(#31f2e22f5f)"><path fill="#ffffff" d="M 259.800781 274.199219 L 275.710938 274.199219 L 275.710938 285.148438 L 259.800781 285.148438 Z M 259.800781 274.199219 " fill-opacity="1" fill-rule="nonzero"/></g></g><g clip-path="url(#ca857db337)"><g clip-path="url(#097fbaa773)"><path fill="#ffffff" d="M 107.625 272.324219 L 124.585938 272.324219 L 124.585938 284.625 L 107.625 284.625 Z M 107.625 272.324219 " fill-opacity="1" fill-rule="nonzero"/></g></g><g clip-path="url(#a7c2429a98)"><g clip-path="url(#95e9a778e3)"><path fill="#ffffff" d="M 52.125 179.023438 L 62.851562 179.023438 L 62.851562 197.542969 L 52.125 197.542969 Z M 52.125 179.023438 " fill-opacity="1" fill-rule="nonzero"/></g></g><g clip-path="url(#1bac15e8db)"><g clip-path="url(#ee804be1c9)"><path fill="#ffffff" d="M 53.625 178.351562 L 64.273438 178.351562 L 64.273438 197.859375 L 53.625 197.859375 Z M 53.625 178.351562 " fill-opacity="1" fill-rule="nonzero"/></g></g><g clip-path="url(#fa300441a3)"><g clip-path="url(#98df099331)"><path fill="#ffffff" d="M 92.101562 86.625 L 100.726562 86.625 L 100.726562 98.316406 L 92.101562 98.316406 Z M 92.101562 86.625 " fill-opacity="1" fill-rule="nonzero"/></g></g><g clip-path="url(#e4bcca9bb7)"><g clip-path="url(#7c640dd0a1)"><path fill="#ffffff" d="M 183.601562 62.625 L 193.496094 62.625 L 193.496094 70.351562 L 183.601562 70.351562 Z M 183.601562 62.625 " fill-opacity="1" fill-rule="nonzero"/></g></g><g clip-path="url(#a5c6187373)"><g clip-path="url(#6f76ecdaa3)"><path fill="#ffffff" d="M 183.75 62.773438 L 193.042969 62.773438 L 193.042969 70.425781 L 183.75 70.425781 Z M 183.75 62.773438 " fill-opacity="1" fill-rule="nonzero"/></g></g><g clip-path="url(#2faa5a8ca8)"><g clip-path="url(#f4f02d360f)"><path fill="#ffffff" d="M 183.675781 62.023438 L 193.714844 62.023438 L 193.714844 70.648438 L 183.675781 70.648438 Z M 183.675781 62.023438 " fill-opacity="1" fill-rule="nonzero"/></g></g><g clip-path="url(#3d6fa8a1cc)"><g clip-path="url(#aa51efc977)"><path fill="#ffffff" d="M 115.949219 273.148438 L 124.875 273.148438 L 124.875 283.261719 L 115.949219 283.261719 Z M 115.949219 273.148438 " fill-opacity="1" fill-rule="nonzero"/></g></g><g clip-path="url(#382fd34289)"><g clip-path="url(#385301daac)"><path fill="#ffffff" d="M 116.625 275.550781 L 124.042969 275.550781 L 124.042969 282.824219 L 116.625 282.824219 Z M 116.625 275.550781 " fill-opacity="1" fill-rule="nonzero"/></g></g><g clip-path="url(#6326f68804)"><g clip-path="url(#365927fbc4)"><path fill="#ffffff" d="M 117.675781 275.550781 L 125.09375 275.550781 L 125.09375 282.824219 L 117.675781 282.824219 Z M 117.675781 275.550781 " fill-opacity="1" fill-rule="nonzero"/></g></g><g clip-path="url(#ade5f5afb4)"><g clip-path="url(#53e732d713)"><path fill="#ffffff" d="M 239.101562 279.675781 L 246.515625 279.675781 L 246.515625 286.949219 L 239.101562 286.949219 Z M 239.101562 279.675781 " fill-opacity="1" fill-rule="nonzero"/></g></g><g clip-path="url(#ccebd396ed)"><g clip-path="url(#9953e9ff37)"><path fill="#ffffff" d="M 240.226562 279.375 L 247.640625 279.375 L 247.640625 286.648438 L 240.226562 286.648438 Z M 240.226562 279.375 " fill-opacity="1" fill-rule="nonzero"/></g></g><g clip-path="url(#fd94fa2629)"><g clip-path="url(#ec9dd4f319)"><path fill="#ffffff" d="M 239.625 279.375 L 247.042969 279.375 L 247.042969 286.648438 L 239.625 286.648438 Z M 239.625 279.375 " fill-opacity="1" fill-rule="nonzero"/></g></g><g clip-path="url(#39be599001)"><g clip-path="url(#10be603e21)"><path fill="#ffffff" d="M 267 272.023438 L 275.851562 272.023438 L 275.851562 282.363281 L 267 282.363281 Z M 267 272.023438 " fill-opacity="1" fill-rule="nonzero"/></g></g><g clip-path="url(#bfd5d5d492)"><g clip-path="url(#bffb297fc0)"><path fill="#ffffff" d="M 268.199219 270.898438 L 275.699219 270.898438 L 275.699219 281.710938 L 268.199219 281.710938 Z M 268.199219 270.898438 " fill-opacity="1" fill-rule="nonzero"/></g></g><g clip-path="url(#69402bc39c)"><g clip-path="url(#b26d799694)"><path fill="#ffffff" d="M 268.875 272.175781 L 276.292969 272.175781 L 276.292969 279.449219 L 268.875 279.449219 Z M 268.875 272.175781 " fill-opacity="1" fill-rule="nonzero"/></g></g><g clip-path="url(#85e5e7b494)"><g clip-path="url(#69e76899a1)"><path fill="#ffffff" d="M 268.199219 275.398438 L 275.617188 275.398438 L 275.617188 282.675781 L 268.199219 282.675781 Z M 268.199219 275.398438 " fill-opacity="1" fill-rule="nonzero"/></g></g><g clip-path="url(#1d3a80d5cd)"><g clip-path="url(#2c868d2839)"><path fill="#ffffff" d="M 261.898438 275.851562 L 269.316406 275.851562 L 269.316406 283.125 L 261.898438 283.125 Z M 261.898438 275.851562 " fill-opacity="1" fill-rule="nonzero"/></g></g><g clip-path="url(#82f09fa6cd)"><g clip-path="url(#1cd8e32adf)"><path fill="#ffffff" d="M 238.648438 278.699219 L 246.066406 278.699219 L 246.066406 285.976562 L 238.648438 285.976562 Z M 238.648438 278.699219 " fill-opacity="1" fill-rule="nonzero"/></g></g><g clip-path="url(#4f16862a37)"><g clip-path="url(#5064af5f4a)"><path fill="#ffffff" d="M 239.101562 277.875 L 246.515625 277.875 L 246.515625 285.148438 L 239.101562 285.148438 Z M 239.101562 277.875 " fill-opacity="1" fill-rule="nonzero"/></g></g><g clip-path="url(#0647718b65)"><g clip-path="url(#648463bb0f)"><path fill="#ffffff" d="M 238.800781 279.226562 L 246.21875 279.226562 L 246.21875 286.5 L 238.800781 286.5 Z M 238.800781 279.226562 " fill-opacity="1" fill-rule="nonzero"/></g></g></svg>