<svg xmlns="http://www.w3.org/2000/svg" xmlns:xlink="http://www.w3.org/1999/xlink" width="500" zoomAndPan="magnify" viewBox="0 0 375 374.999991" height="500" preserveAspectRatio="xMidYMid meet" version="1.0"><defs><clipPath id="8652d9c289"><path d="M 126 146.542969 L 218 146.542969 L 218 151 L 126 151 Z M 126 146.542969 " clip-rule="nonzero"/></clipPath><clipPath id="6aaae9379d"><path d="M 157.019531 192.804688 L 175.160156 192.804688 L 175.160156 210.976562 L 157.019531 210.976562 Z M 157.019531 192.804688 " clip-rule="nonzero"/></clipPath><clipPath id="5aed9f2db9"><path d="M 243.414062 192.804688 L 261.703125 192.804688 L 261.703125 210.976562 L 243.414062 210.976562 Z M 243.414062 192.804688 " clip-rule="nonzero"/></clipPath><clipPath id="cd581f0d77"><path d="M 121.308594 202 L 126 202 L 126 204 L 121.308594 204 Z M 121.308594 202 " clip-rule="nonzero"/></clipPath><clipPath id="5db49cb45a"><path d="M 261.269531 194.109375 L 271.304688 194.109375 L 271.304688 202.652344 L 261.269531 202.652344 Z M 261.269531 194.109375 " clip-rule="nonzero"/></clipPath></defs><path fill="#1a1a1a" d="M 252.71875 189.503906 C 246.65625 189.503906 241.742188 194.449219 241.742188 200.546875 C 241.742188 200.953125 241.742188 201.625 241.742188 202 L 263.621094 199.242188 C 263.378906 197.191406 262.585938 195.316406 261.386719 193.769531 C 259.378906 191.175781 256.242188 189.503906 252.71875 189.503906 " fill-opacity="1" fill-rule="nonzero"/><path fill="#1a1a1a" d="M 166.390625 191.003906 C 160.417969 191.003906 155.566406 195.800781 155.421875 201.773438 L 177.363281 201.773438 C 177.21875 195.800781 172.367188 191.003906 166.390625 191.003906 " fill-opacity="1" fill-rule="nonzero"/><path fill="#f2f2f2" d="M 263.695312 202.28125 L 269.109375 202.28125 C 269.109375 202.28125 269.105469 183.34375 269.101562 183.277344 C 269.027344 182.203125 268.414062 181.707031 267.460938 181.199219 L 266.785156 180.832031 C 265.371094 180.066406 263.824219 179.578125 262.230469 179.390625 L 248.914062 177.835938 C 247.175781 177.628906 245.582031 176.773438 244.449219 175.433594 L 234.769531 164.921875 C 233.5625 163.5 231.828125 162.644531 229.972656 162.5625 L 227.332031 162.445312 L 221.046875 162.164062 L 217.984375 162.03125 L 217.199219 161.996094 L 217.199219 150.191406 L 127.34375 150.191406 L 127.34375 203.699219 L 155.417969 203.699219 L 155.417969 202.046875 C 155.417969 201.953125 155.421875 201.863281 155.421875 201.773438 C 155.566406 195.800781 160.417969 191.003906 166.390625 191.003906 C 172.367188 191.003906 177.21875 195.800781 177.363281 201.773438 C 177.363281 201.863281 177.367188 201.953125 177.367188 202.046875 L 177.367188 203.699219 L 217.199219 203.699219 L 217.199219 202.28125 L 241.742188 202.28125 C 241.742188 202.28125 241.742188 202.171875 241.742188 202 C 241.742188 201.625 241.742188 200.953125 241.742188 200.546875 C 241.742188 194.449219 246.65625 189.503906 252.71875 189.503906 C 256.242188 189.503906 259.378906 191.175781 261.386719 193.769531 C 262.585938 195.316406 263.378906 197.191406 263.621094 199.242188 C 263.667969 199.671875 263.695312 200.105469 263.695312 200.546875 L 263.695312 202.050781 C 263.695312 202.191406 263.695312 202.28125 263.695312 202.28125 " fill-opacity="1" fill-rule="nonzero"/><g clip-path="url(#8652d9c289)"><path fill="#ececec" d="M 217.03125 146.601562 L 127.515625 146.601562 C 127.117188 146.601562 126.796875 146.925781 126.796875 147.324219 L 126.796875 150.191406 L 217.75 150.191406 L 217.75 147.324219 C 217.75 146.925781 217.425781 146.601562 217.03125 146.601562 " fill-opacity="1" fill-rule="nonzero"/></g><path fill="#c6c6c6" d="M 217.199219 151.023438 L 217.199219 150.191406 L 127.34375 150.191406 L 127.34375 151.023438 L 127.34375 150.191406 L 217.199219 150.191406 L 217.199219 151.023438 " fill-opacity="1" fill-rule="nonzero"/><path fill="#bcbcbc" d="M 217.199219 151.023438 L 127.34375 151.023438 L 127.34375 150.191406 L 217.199219 150.191406 L 217.199219 151.023438 " fill-opacity="1" fill-rule="nonzero"/><path fill="#ececec" d="M 227.332031 160.972656 L 227.332031 162.445312 L 221.046875 162.164062 L 221.046875 160.972656 C 221.917969 161.277344 223.007812 161.460938 224.191406 161.460938 C 225.371094 161.460938 226.460938 161.277344 227.332031 160.972656 " fill-opacity="1" fill-rule="nonzero"/><path fill="#b8b8b7" d="M 227.332031 161.972656 L 224.191406 161.460938 C 225.371094 161.460938 226.460938 161.277344 227.332031 160.972656 L 227.332031 161.972656 " fill-opacity="1" fill-rule="nonzero"/><path fill="#e5332a" d="M 221.046875 160.972656 C 221.917969 161.28125 223.007812 161.464844 224.191406 161.464844 C 225.371094 161.464844 226.460938 161.28125 227.332031 160.976562 C 228.566406 160.539062 229.363281 159.855469 229.363281 159.082031 L 219.015625 159.082031 C 219.015625 159.855469 219.8125 160.539062 221.046875 160.972656 " fill-opacity="1" fill-rule="nonzero"/><path fill="#e84e1b" d="M 224.191406 156.703125 C 221.332031 156.703125 219.015625 157.769531 219.015625 159.082031 L 229.363281 159.082031 C 229.363281 157.769531 227.046875 156.703125 224.191406 156.703125 " fill-opacity="1" fill-rule="nonzero"/><path fill="#c6c6c5" d="M 265.285156 183.984375 L 269.109375 183.984375 L 269.109375 183.957031 C 269.109375 183.886719 269.105469 183.816406 269.101562 183.75 L 265.285156 183.75 C 264.367188 183.75 263.621094 184.503906 263.621094 185.429688 L 263.621094 186.722656 C 263.621094 187.648438 264.367188 188.402344 265.285156 188.402344 L 269.109375 188.402344 L 269.109375 188.164062 L 265.285156 188.164062 C 264.496094 188.164062 263.855469 187.519531 263.855469 186.722656 L 263.855469 185.429688 C 263.855469 184.628906 264.496094 183.984375 265.285156 183.984375 " fill-opacity="1" fill-rule="nonzero"/><path fill="#fbd8c9" d="M 269.109375 183.984375 L 269.109375 188.164062 L 265.285156 188.164062 C 264.496094 188.164062 263.855469 187.519531 263.855469 186.722656 L 263.855469 185.429688 C 263.855469 184.628906 264.496094 183.984375 265.285156 183.984375 L 269.109375 183.984375 " fill-opacity="1" fill-rule="nonzero"/><path fill="#c6c6c5" d="M 266.558594 188.800781 L 269.109375 188.800781 L 269.109375 188.566406 L 266.558594 188.566406 C 265.890625 188.566406 265.34375 189.113281 265.34375 189.785156 C 265.34375 190.109375 265.46875 190.417969 265.699219 190.648438 C 265.929688 190.882812 266.234375 191.011719 266.558594 191.011719 L 269.109375 191.011719 L 269.109375 190.773438 L 266.558594 190.773438 C 266.285156 190.773438 266.042969 190.660156 265.867188 190.484375 C 265.6875 190.304688 265.578125 190.058594 265.578125 189.785156 C 265.578125 189.242188 266.015625 188.800781 266.558594 188.800781 " fill-opacity="1" fill-rule="nonzero"/><path fill="#fff0b3" d="M 269.109375 188.800781 L 269.109375 190.773438 L 266.558594 190.773438 C 266.285156 190.773438 266.042969 190.660156 265.867188 190.484375 C 265.6875 190.304688 265.578125 190.058594 265.578125 189.785156 C 265.578125 189.242188 266.015625 188.800781 266.558594 188.800781 L 269.109375 188.800781 " fill-opacity="1" fill-rule="nonzero"/><path fill="#575756" d="M 220.382812 184.9375 L 220.179688 184.9375 L 220.179688 181.296875 L 220.382812 181.296875 C 220.859375 181.296875 221.25 181.6875 221.25 182.167969 L 221.25 184.066406 C 221.25 184.546875 220.859375 184.9375 220.382812 184.9375 " fill-opacity="1" fill-rule="nonzero"/><path fill="#35a8e0" d="M 240.175781 174.671875 L 240.175781 176.21875 C 240.175781 177.371094 239.242188 178.304688 238.097656 178.304688 L 222.257812 178.304688 C 221.613281 178.304688 221.035156 178.011719 220.65625 177.546875 C 220.636719 177.523438 220.621094 177.5 220.601562 177.476562 C 220.339844 177.128906 220.179688 176.691406 220.179688 176.21875 L 220.179688 166.515625 C 220.179688 165.363281 221.109375 164.425781 222.257812 164.425781 L 228.578125 164.425781 C 228.621094 164.425781 228.664062 164.425781 228.703125 164.425781 C 229.019531 164.433594 229.332031 164.46875 229.636719 164.527344 C 230.035156 164.601562 230.425781 164.722656 230.796875 164.882812 C 231.316406 165.105469 231.796875 165.410156 232.230469 165.785156 C 232.25 165.800781 232.273438 165.820312 232.292969 165.839844 C 232.390625 165.921875 232.484375 166.007812 232.570312 166.097656 L 232.886719 166.417969 L 234.546875 168.101562 L 239.570312 173.199219 C 239.957031 173.589844 240.175781 174.121094 240.175781 174.671875 " fill-opacity="1" fill-rule="nonzero"/><path fill="#9c9b9b" d="M 239.507812 173.183594 L 239.308594 173.183594 C 239.308594 173.210938 239.3125 173.242188 239.3125 173.273438 L 239.3125 177.421875 C 239.3125 177.582031 239.296875 177.734375 239.277344 177.882812 L 239.507812 177.882812 C 240.613281 177.882812 241.507812 176.832031 241.507812 175.53125 C 241.507812 174.234375 240.613281 173.183594 239.507812 173.183594 " fill-opacity="1" fill-rule="nonzero"/><path fill="#575756" d="M 239.308594 173.183594 C 239.273438 171.933594 238.585938 170.882812 237.632812 170.488281 C 237.226562 170.320312 236.800781 170.664062 236.800781 171.167969 L 236.800781 179.527344 C 236.800781 180.023438 237.21875 180.375 237.617188 180.214844 C 238.480469 179.867188 239.132812 178.972656 239.277344 177.882812 C 239.296875 177.734375 239.3125 177.582031 239.3125 177.421875 L 239.3125 173.273438 C 239.3125 173.242188 239.308594 173.210938 239.308594 173.183594 " fill-opacity="1" fill-rule="nonzero"/><path fill="#68bee8" d="M 220.179688 174.039062 L 220.179688 169.019531 L 224.75 164.425781 L 228.578125 164.425781 C 228.621094 164.425781 228.664062 164.425781 228.703125 164.425781 C 229.019531 164.433594 229.332031 164.46875 229.636719 164.527344 L 220.179688 174.039062 " fill-opacity="1" fill-rule="nonzero"/><path fill="#68bee8" d="M 220.601562 177.476562 C 220.339844 177.128906 220.179688 176.691406 220.179688 176.21875 L 220.179688 175.566406 L 230.796875 164.882812 C 231.316406 165.105469 231.796875 165.410156 232.230469 165.785156 L 220.601562 177.476562 " fill-opacity="1" fill-rule="nonzero"/><g clip-path="url(#6aaae9379d)"><path fill="#1d1d1b" d="M 157.125 201.910156 C 157.125 196.898438 161.160156 192.839844 166.140625 192.839844 C 171.121094 192.839844 175.15625 196.898438 175.15625 201.910156 C 175.15625 206.917969 171.121094 210.976562 166.140625 210.976562 C 161.160156 210.976562 157.125 206.917969 157.125 201.910156 " fill-opacity="1" fill-rule="nonzero"/></g><path fill="#d9d9d9" d="M 159.675781 201.910156 C 159.675781 198.316406 162.570312 195.40625 166.140625 195.40625 C 169.710938 195.40625 172.605469 198.316406 172.605469 201.910156 C 172.605469 205.5 169.710938 208.410156 166.140625 208.410156 C 162.570312 208.410156 159.675781 205.5 159.675781 201.910156 " fill-opacity="1" fill-rule="nonzero"/><path fill="#3c3c3b" d="M 163.078125 201.910156 C 163.078125 200.207031 164.449219 198.828125 166.140625 198.828125 C 167.832031 198.828125 169.203125 200.207031 169.203125 201.910156 C 169.203125 203.609375 167.832031 204.988281 166.140625 204.988281 C 164.449219 204.988281 163.078125 203.609375 163.078125 201.910156 " fill-opacity="1" fill-rule="nonzero"/><g clip-path="url(#5aed9f2db9)"><path fill="#1d1d1b" d="M 243.527344 201.910156 C 243.527344 196.898438 247.566406 192.839844 252.546875 192.839844 C 257.527344 192.839844 261.5625 196.898438 261.5625 201.910156 C 261.5625 206.917969 257.527344 210.976562 252.546875 210.976562 C 247.566406 210.976562 243.527344 206.917969 243.527344 201.910156 " fill-opacity="1" fill-rule="nonzero"/></g><path fill="#d9d9d9" d="M 246.082031 201.910156 C 246.082031 198.316406 248.976562 195.40625 252.546875 195.40625 C 256.117188 195.40625 259.011719 198.316406 259.011719 201.910156 C 259.011719 205.5 256.117188 208.410156 252.546875 208.410156 C 248.976562 208.410156 246.082031 205.5 246.082031 201.910156 " fill-opacity="1" fill-rule="nonzero"/><path fill="#3c3c3b" d="M 249.484375 201.910156 C 249.484375 200.207031 250.855469 198.828125 252.546875 198.828125 C 254.238281 198.828125 255.609375 200.207031 255.609375 201.910156 C 255.609375 203.609375 254.238281 204.988281 252.546875 204.988281 C 250.855469 204.988281 249.484375 203.609375 249.484375 201.910156 " fill-opacity="1" fill-rule="nonzero"/><path fill="#ffffff" d="M 202.804688 196.445312 L 215.390625 196.445312 L 215.390625 173.851562 L 202.804688 173.851562 Z M 202.804688 196.445312 " fill-opacity="1" fill-rule="nonzero"/><path fill="#d9d9d9" d="M 210.785156 176.851562 L 207.414062 176.851562 L 207.414062 177.664062 L 210.785156 177.664062 L 210.785156 176.851562 " fill-opacity="1" fill-rule="nonzero"/><path fill="#ececec" d="M 207.414062 177.664062 L 207.414062 178.746094 L 210.785156 178.746094 L 210.785156 177.664062 L 207.414062 177.664062 " fill-opacity="1" fill-rule="nonzero"/><path fill="#ffffff" d="M 131.1875 192.070312 L 144.125 192.070312 L 144.125 181.183594 L 131.1875 181.183594 Z M 131.1875 192.070312 " fill-opacity="1" fill-rule="nonzero"/><path fill="#d9d9d9" d="M 139.339844 182.28125 L 135.96875 182.28125 L 135.96875 183.09375 L 139.339844 183.09375 L 139.339844 182.28125 " fill-opacity="1" fill-rule="nonzero"/><path fill="#ececec" d="M 135.96875 183.09375 L 135.96875 184.171875 L 139.339844 184.171875 L 139.339844 183.09375 L 135.96875 183.09375 " fill-opacity="1" fill-rule="nonzero"/><path fill="#ffffff" d="M 180.976562 196.917969 L 200.5 196.917969 L 200.5 153.03125 L 180.976562 153.03125 Z M 180.976562 196.917969 " fill-opacity="1" fill-rule="nonzero"/><path fill="#35a8e0" d="M 185.171875 173.816406 L 196.304688 173.816406 L 196.304688 158.042969 L 185.171875 158.042969 Z M 185.171875 173.816406 " fill-opacity="1" fill-rule="nonzero"/><path fill="#d9d9d9" d="M 186.191406 176.851562 L 182.820312 176.851562 L 182.820312 177.664062 L 186.191406 177.664062 L 186.191406 176.851562 " fill-opacity="1" fill-rule="nonzero"/><path fill="#ececec" d="M 182.820312 177.664062 L 182.820312 178.746094 L 186.191406 178.746094 L 186.191406 177.664062 L 182.820312 177.664062 " fill-opacity="1" fill-rule="nonzero"/><path fill="#68bee8" d="M 185.171875 168.558594 L 185.171875 163.539062 L 190.636719 158.042969 L 195.625 158.042969 L 185.171875 168.558594 " fill-opacity="1" fill-rule="nonzero"/><path fill="#68bee8" d="M 185.171875 172.246094 L 185.171875 169.90625 L 196.304688 158.707031 L 196.304688 161.050781 L 185.171875 172.246094 " fill-opacity="1" fill-rule="nonzero"/><path fill="#e5332a" d="M 135.773438 149.289062 L 133.5 149.289062 C 132.980469 149.289062 132.558594 148.867188 132.558594 148.34375 C 132.558594 147.820312 132.980469 147.394531 133.5 147.394531 L 135.773438 147.394531 C 136.292969 147.394531 136.714844 147.820312 136.714844 148.34375 C 136.714844 148.867188 136.292969 149.289062 135.773438 149.289062 " fill-opacity="1" fill-rule="nonzero"/><path fill="#e5332a" d="M 160.34375 149.289062 L 158.070312 149.289062 C 157.550781 149.289062 157.128906 148.867188 157.128906 148.34375 C 157.128906 147.820312 157.550781 147.394531 158.070312 147.394531 L 160.34375 147.394531 C 160.863281 147.394531 161.285156 147.820312 161.285156 148.34375 C 161.285156 148.867188 160.863281 149.289062 160.34375 149.289062 " fill-opacity="1" fill-rule="nonzero"/><path fill="#e5332a" d="M 184.910156 149.289062 L 182.636719 149.289062 C 182.117188 149.289062 181.695312 148.867188 181.695312 148.34375 C 181.695312 147.820312 182.117188 147.394531 182.636719 147.394531 L 184.910156 147.394531 C 185.429688 147.394531 185.851562 147.820312 185.851562 148.34375 C 185.851562 148.867188 185.429688 149.289062 184.910156 149.289062 " fill-opacity="1" fill-rule="nonzero"/><path fill="#e5332a" d="M 209.476562 149.289062 L 207.203125 149.289062 C 206.683594 149.289062 206.261719 148.867188 206.261719 148.34375 C 206.261719 147.820312 206.683594 147.394531 207.203125 147.394531 L 209.476562 147.394531 C 209.996094 147.394531 210.417969 147.820312 210.417969 148.34375 C 210.417969 148.867188 209.996094 149.289062 209.476562 149.289062 " fill-opacity="1" fill-rule="nonzero"/><path fill="#e20613" d="M 269.109375 196.648438 L 269.109375 202.28125 L 263.695312 202.28125 C 263.695312 202.28125 263.695312 202.191406 263.695312 202.050781 L 263.695312 200.546875 C 263.695312 197.992188 262.835938 195.640625 261.386719 193.769531 C 259.378906 191.175781 256.242188 189.503906 252.71875 189.503906 C 246.65625 189.503906 241.742188 194.449219 241.742188 200.546875 C 241.742188 201.136719 241.742188 202.28125 241.742188 202.28125 L 217.199219 202.28125 L 217.199219 203.699219 L 177.367188 203.699219 L 177.367188 202.046875 C 177.367188 195.949219 172.457031 191.003906 166.390625 191.003906 C 160.328125 191.003906 155.417969 195.949219 155.417969 202.046875 L 155.417969 203.699219 L 127.34375 203.699219 L 127.34375 186.277344 L 247.742188 186.277344 C 256.394531 186.277344 264.109375 190.332031 269.109375 196.648438 " fill-opacity="1" fill-rule="nonzero"/><path fill="#e20613" d="M 269.382812 196.429688 C 264.105469 189.753906 256.214844 185.921875 247.742188 185.921875 L 127.34375 185.921875 L 127.34375 185.214844 L 247.742188 185.214844 C 256.433594 185.214844 264.523438 189.140625 269.933594 195.988281 L 269.382812 196.429688 " fill-opacity="1" fill-rule="nonzero"/><g clip-path="url(#cd581f0d77)"><path fill="#ececec" d="M 122.152344 202.003906 C 121.683594 202.003906 121.308594 202.386719 121.308594 202.855469 C 121.308594 203.320312 121.683594 203.703125 122.152344 203.703125 L 125.894531 203.703125 L 125.894531 202.003906 L 122.152344 202.003906 " fill-opacity="1" fill-rule="nonzero"/></g><path fill="#4d4d4d" d="M 128.128906 203.699219 L 128.128906 203.703125 L 125.894531 203.703125 L 125.894531 191.753906 L 127.34375 191.753906 L 127.34375 203.699219 L 128.128906 203.699219 " fill-opacity="1" fill-rule="nonzero"/><path fill="#d9d9d9" d="M 155.414062 203.699219 L 155.414062 202.042969 C 155.414062 195.949219 160.328125 191.003906 166.390625 191.003906 C 172.457031 191.003906 177.371094 195.949219 177.371094 202.042969 L 177.371094 203.699219 L 178.308594 203.699219 L 178.308594 202.042969 C 178.308594 195.433594 172.964844 190.058594 166.390625 190.058594 C 159.820312 190.058594 154.476562 195.433594 154.476562 202.042969 L 154.476562 203.699219 L 155.414062 203.699219 " fill-opacity="1" fill-rule="nonzero"/><path fill="#dad7db" d="M 180.976562 203.699219 L 200.5 203.699219 L 200.5 201.671875 L 180.976562 201.671875 Z M 180.976562 203.699219 " fill-opacity="1" fill-rule="nonzero"/><path fill="#c4bfc0" d="M 180.976562 197.90625 L 180.976562 201.671875 L 200.5 201.671875 L 200.5 197.90625 L 180.976562 197.90625 " fill-opacity="1" fill-rule="nonzero"/><path fill="#c80510" d="M 201.792969 203.699219 L 200.5 203.699219 L 200.5 197.90625 L 201.792969 203.699219 " fill-opacity="1" fill-rule="nonzero"/><g clip-path="url(#5db49cb45a)"><path fill="#868686" d="M 271.304688 196.253906 L 271.304688 200.515625 C 271.304688 201.625 270.40625 202.523438 269.304688 202.523438 L 263.695312 202.523438 L 261.386719 194.242188 L 269.304688 194.242188 C 270.40625 194.242188 271.304688 195.144531 271.304688 196.253906 " fill-opacity="1" fill-rule="nonzero"/></g><path fill="#e20613" d="M 135.972656 166.71875 L 135.671875 165.6875 C 135.585938 165.398438 135.5 165.039062 135.425781 164.75 L 135.414062 164.75 C 135.34375 165.039062 135.269531 165.40625 135.191406 165.6875 L 134.90625 166.71875 Z M 134.746094 167.539062 L 134.402344 168.785156 L 133.273438 168.785156 L 134.746094 163.929688 L 136.179688 163.929688 L 137.675781 168.785156 L 136.5 168.785156 L 136.128906 167.539062 L 134.746094 167.539062 " fill-opacity="1" fill-rule="nonzero"/><path fill="#e20613" d="M 142.402344 166.925781 C 142.378906 166.34375 142.359375 165.636719 142.359375 164.929688 L 142.339844 164.929688 C 142.1875 165.550781 141.988281 166.242188 141.800781 166.8125 L 141.214844 168.703125 L 140.363281 168.703125 L 139.847656 166.832031 C 139.6875 166.257812 139.523438 165.566406 139.410156 164.929688 L 139.394531 164.929688 C 139.367188 165.585938 139.34375 166.335938 139.308594 166.941406 L 139.222656 168.785156 L 138.210938 168.785156 L 138.519531 163.929688 L 139.972656 163.929688 L 140.449219 165.550781 C 140.597656 166.105469 140.746094 166.71875 140.855469 167.285156 L 140.875 167.285156 C 141.011719 166.726562 141.175781 166.082031 141.335938 165.542969 L 141.851562 163.929688 L 143.277344 163.929688 L 143.539062 168.785156 L 142.472656 168.785156 L 142.402344 166.925781 " fill-opacity="1" fill-rule="nonzero"/><path fill="#e20613" d="M 145.460938 168.007812 C 145.566406 168.019531 145.695312 168.019531 145.882812 168.019531 C 146.375 168.019531 146.8125 167.828125 146.8125 167.320312 C 146.8125 166.832031 146.375 166.636719 145.832031 166.636719 L 145.460938 166.636719 Z M 145.460938 165.851562 L 145.816406 165.851562 C 146.390625 165.851562 146.699219 165.613281 146.699219 165.253906 C 146.699219 164.886719 146.417969 164.691406 145.925781 164.691406 C 145.6875 164.691406 145.554688 164.707031 145.460938 164.722656 Z M 144.378906 163.996094 C 144.664062 163.9375 145.246094 163.894531 145.789062 163.894531 C 146.457031 163.894531 146.863281 163.957031 147.214844 164.167969 C 147.550781 164.347656 147.792969 164.679688 147.792969 165.117188 C 147.792969 165.550781 147.542969 165.953125 147 166.15625 L 147 166.167969 C 147.550781 166.320312 147.957031 166.738281 147.957031 167.367188 C 147.957031 167.804688 147.757812 168.152344 147.457031 168.394531 C 147.105469 168.675781 146.519531 168.835938 145.558594 168.835938 C 145.023438 168.835938 144.621094 168.796875 144.378906 168.761719 L 144.378906 163.996094 " fill-opacity="1" fill-rule="nonzero"/><path fill="#e20613" d="M 149.792969 163.929688 L 149.792969 166.726562 C 149.792969 167.558594 150.105469 167.984375 150.664062 167.984375 C 151.238281 167.984375 151.554688 167.582031 151.554688 166.726562 L 151.554688 163.929688 L 152.640625 163.929688 L 152.640625 166.652344 C 152.640625 168.152344 151.890625 168.863281 150.628906 168.863281 C 149.414062 168.863281 148.695312 168.1875 148.695312 166.636719 L 148.695312 163.929688 L 149.792969 163.929688 " fill-opacity="1" fill-rule="nonzero"/><path fill="#e20613" d="M 153.585938 163.929688 L 154.683594 163.929688 L 154.683594 167.863281 L 156.601562 167.863281 L 156.601562 168.785156 L 153.585938 168.785156 L 153.585938 163.929688 " fill-opacity="1" fill-rule="nonzero"/><path fill="#e20613" d="M 159.636719 166.71875 L 159.335938 165.6875 C 159.25 165.398438 159.164062 165.039062 159.09375 164.75 L 159.078125 164.75 C 159.007812 165.039062 158.9375 165.40625 158.859375 165.6875 L 158.570312 166.71875 Z M 158.414062 167.539062 L 158.070312 168.785156 L 156.9375 168.785156 L 158.414062 163.929688 L 159.847656 163.929688 L 161.34375 168.785156 L 160.167969 168.785156 L 159.796875 167.539062 L 158.414062 167.539062 " fill-opacity="1" fill-rule="nonzero"/><path fill="#e20613" d="M 161.988281 168.785156 L 161.988281 163.929688 L 163.261719 163.929688 L 164.261719 165.707031 C 164.550781 166.21875 164.835938 166.824219 165.050781 167.371094 L 165.074219 167.371094 C 165 166.730469 164.980469 166.078125 164.980469 165.339844 L 164.980469 163.929688 L 165.984375 163.929688 L 165.984375 168.785156 L 164.835938 168.785156 L 163.804688 166.910156 C 163.519531 166.394531 163.203125 165.765625 162.96875 165.199219 L 162.945312 165.203125 C 162.976562 165.84375 162.988281 166.53125 162.988281 167.320312 L 162.988281 168.785156 L 161.988281 168.785156 " fill-opacity="1" fill-rule="nonzero"/><path fill="#e20613" d="M 170.472656 168.648438 C 170.273438 168.75 169.820312 168.863281 169.234375 168.863281 C 167.566406 168.863281 166.707031 167.8125 166.707031 166.429688 C 166.707031 164.773438 167.878906 163.851562 169.339844 163.851562 C 169.90625 163.851562 170.335938 163.964844 170.53125 164.066406 L 170.308594 164.9375 C 170.085938 164.84375 169.777344 164.757812 169.390625 164.757812 C 168.523438 164.757812 167.851562 165.285156 167.851562 166.363281 C 167.851562 167.335938 168.425781 167.949219 169.398438 167.949219 C 169.726562 167.949219 170.09375 167.878906 170.308594 167.789062 L 170.472656 168.648438 " fill-opacity="1" fill-rule="nonzero"/><path fill="#e20613" d="M 174.058594 166.730469 L 172.285156 166.730469 L 172.285156 167.882812 L 174.265625 167.882812 L 174.265625 168.785156 L 171.1875 168.785156 L 171.1875 163.929688 L 174.167969 163.929688 L 174.167969 164.828125 L 172.285156 164.828125 L 172.285156 165.839844 L 174.058594 165.839844 L 174.058594 166.730469 " fill-opacity="1" fill-rule="nonzero"/><path fill="#cecece" d="M 215.859375 186.277344 L 215.390625 186.277344 L 215.390625 185.921875 L 215.859375 185.921875 L 215.859375 186.277344 M 202.804688 186.277344 L 202.335938 186.277344 L 202.335938 185.921875 L 202.804688 185.921875 L 202.804688 186.277344 M 215.859375 185.214844 L 215.390625 185.214844 L 215.390625 173.851562 L 202.804688 173.851562 L 202.804688 185.214844 L 202.335938 185.214844 L 202.335938 173.378906 L 215.859375 173.378906 L 215.859375 185.214844 " fill-opacity="1" fill-rule="nonzero"/><path fill="#c00510" d="M 215.859375 196.917969 L 202.335938 196.917969 L 202.335938 186.277344 L 202.804688 186.277344 L 202.804688 196.445312 L 215.390625 196.445312 L 215.390625 186.277344 L 215.859375 186.277344 L 215.859375 196.917969 " fill-opacity="1" fill-rule="nonzero"/><path fill="#c00510" d="M 215.859375 185.921875 L 215.390625 185.921875 L 215.390625 185.214844 L 215.859375 185.214844 L 215.859375 185.921875 M 202.804688 185.921875 L 202.335938 185.921875 L 202.335938 185.214844 L 202.804688 185.214844 L 202.804688 185.921875 " fill-opacity="1" fill-rule="nonzero"/><path fill="#cecece" d="M 144.59375 186.277344 L 144.125 186.277344 L 144.125 185.921875 L 144.59375 185.921875 L 144.59375 186.277344 M 131.1875 186.277344 L 130.71875 186.277344 L 130.71875 185.921875 L 131.1875 185.921875 L 131.1875 186.277344 M 144.59375 185.214844 L 144.125 185.214844 L 144.125 181.183594 L 131.1875 181.183594 L 131.1875 185.214844 L 130.71875 185.214844 L 130.71875 180.710938 L 144.59375 180.710938 L 144.59375 185.214844 " fill-opacity="1" fill-rule="nonzero"/><path fill="#d9d9d9" d="M 131.1875 186.277344 L 131.1875 185.921875 L 131.1875 186.277344 M 131.1875 185.214844 L 131.1875 181.183594 L 144.125 181.183594 L 131.1875 181.183594 L 131.1875 185.214844 " fill-opacity="1" fill-rule="nonzero"/><path fill="#c00510" d="M 144.59375 192.542969 L 130.71875 192.542969 L 130.71875 186.277344 L 131.1875 186.277344 L 131.1875 192.070312 L 144.125 192.070312 L 144.125 186.277344 L 144.59375 186.277344 L 144.59375 192.542969 " fill-opacity="1" fill-rule="nonzero"/><path fill="#c00510" d="M 144.59375 185.921875 L 144.125 185.921875 L 144.125 185.214844 L 144.59375 185.214844 L 144.59375 185.921875 M 131.1875 185.921875 L 130.71875 185.921875 L 130.71875 185.214844 L 131.1875 185.214844 L 131.1875 185.921875 " fill-opacity="1" fill-rule="nonzero"/><path fill="#cecece" d="M 200.96875 186.277344 L 200.5 186.277344 L 200.5 185.921875 L 200.96875 185.921875 L 200.96875 186.277344 M 180.976562 186.277344 L 180.503906 186.277344 L 180.503906 185.921875 L 180.976562 185.921875 L 180.976562 186.277344 M 200.96875 185.214844 L 200.5 185.214844 L 200.5 153.03125 L 180.976562 153.03125 L 180.976562 185.214844 L 180.503906 185.214844 L 180.503906 152.558594 L 200.96875 152.558594 L 200.96875 185.214844 " fill-opacity="1" fill-rule="nonzero"/><path fill="#c00510" d="M 200.96875 197.390625 L 180.503906 197.390625 L 180.503906 186.277344 L 180.976562 186.277344 L 180.976562 196.917969 L 200.5 196.917969 L 200.5 186.277344 L 200.96875 186.277344 L 200.96875 197.390625 " fill-opacity="1" fill-rule="nonzero"/><path fill="#c00510" d="M 200.96875 185.921875 L 200.5 185.921875 L 200.5 185.214844 L 200.96875 185.214844 L 200.96875 185.921875 M 180.976562 185.921875 L 180.503906 185.921875 L 180.503906 185.214844 L 180.976562 185.214844 L 180.976562 185.921875 " fill-opacity="1" fill-rule="nonzero"/><path fill="#bcbcbb" d="M 217.984375 186.277344 L 217.199219 186.277344 L 217.199219 185.921875 L 217.984375 185.921875 L 217.984375 186.277344 M 217.984375 185.214844 L 217.199219 185.214844 L 217.199219 161.996094 L 217.984375 162.03125 L 217.984375 185.214844 " fill-opacity="1" fill-rule="nonzero"/><path fill="#af050f" d="M 217.199219 202.28125 L 217.984375 202.28125 L 217.984375 186.277344 L 217.199219 186.277344 Z M 217.199219 202.28125 " fill-opacity="1" fill-rule="nonzero"/><path fill="#af050f" d="M 217.199219 185.921875 L 217.984375 185.921875 L 217.984375 185.214844 L 217.199219 185.214844 Z M 217.199219 185.921875 " fill-opacity="1" fill-rule="nonzero"/></svg>