<svg xmlns="http://www.w3.org/2000/svg" xmlns:xlink="http://www.w3.org/1999/xlink" width="500" zoomAndPan="magnify" viewBox="0 0 375 374.999991" height="500" preserveAspectRatio="xMidYMid meet" version="1.0"><defs><clipPath id="51e28952b2"><path d="M 137 103.070312 L 244 103.070312 L 244 158 L 137 158 Z M 137 103.070312 " clip-rule="nonzero"/></clipPath><clipPath id="9a7aaea7e4"><path d="M 133.757812 128 L 247.757812 128 L 247.757812 253.070312 L 133.757812 253.070312 Z M 133.757812 128 " clip-rule="nonzero"/></clipPath><clipPath id="2bbd502eee"><path d="M 149 157 L 232 157 L 232 253.070312 L 149 253.070312 Z M 149 157 " clip-rule="nonzero"/></clipPath><clipPath id="bdf20776c6"><path d="M 134 241 L 150 241 L 150 253.070312 L 134 253.070312 Z M 134 241 " clip-rule="nonzero"/></clipPath><clipPath id="556aa252c9"><path d="M 231 151 L 247.757812 151 L 247.757812 253.070312 L 231 253.070312 Z M 231 151 " clip-rule="nonzero"/></clipPath><clipPath id="3dad69efbc"><path d="M 149 205 L 232 205 L 232 253.070312 L 149 253.070312 Z M 149 205 " clip-rule="nonzero"/></clipPath></defs><path fill="#e15c63" d="M 220.234375 181.644531 C 222.28125 183.691406 223.550781 186.515625 223.550781 189.640625 C 223.550781 195.886719 218.480469 200.949219 212.226562 200.949219 L 206.0625 200.949219 L 206.0625 178.328125 L 212.226562 178.328125 C 215.351562 178.328125 218.183594 179.59375 220.234375 181.644531 Z M 220.234375 181.644531 " fill-opacity="1" fill-rule="nonzero"/><g clip-path="url(#51e28952b2)"><path fill="#655f68" d="M 233.8125 120.449219 L 243.976562 154.441406 C 229.109375 159.761719 216.769531 158.941406 223.128906 133.09375 L 220.527344 124.40625 C 219.210938 119.996094 215.066406 116.910156 210.449219 116.910156 L 171.070312 116.910156 C 166.453125 116.910156 162.3125 119.996094 160.992188 124.40625 L 158.394531 133.09375 C 155.804688 152.652344 147.050781 157.1875 137.542969 154.441406 L 147.710938 120.449219 C 150.769531 110.21875 160.375 103.070312 171.070312 103.070312 L 210.449219 103.070312 C 221.148438 103.070312 230.753906 110.21875 233.8125 120.449219 Z M 233.8125 120.449219 " fill-opacity="1" fill-rule="nonzero"/></g><g clip-path="url(#9a7aaea7e4)"><path fill="#d14b62" d="M 243.980469 154.457031 L 243.976562 154.441406 C 239.777344 145.101562 232.359375 137.515625 223.128906 133.09375 C 217.453125 130.375 211.097656 128.855469 204.390625 128.855469 L 194.238281 128.855469 L 191.6875 134.738281 L 189.296875 135.660156 L 187.285156 128.855469 L 177.132812 128.855469 C 170.421875 128.855469 164.066406 130.375 158.394531 133.09375 C 149.164062 137.515625 141.746094 145.101562 137.542969 154.441406 L 137.542969 154.457031 C 135.113281 159.859375 133.765625 165.851562 133.765625 172.15625 L 133.765625 236.941406 C 133.765625 245.847656 140.996094 253.070312 149.917969 253.070312 C 176.480469 247.167969 203.75 247.546875 231.601562 253.070312 C 240.523438 253.070312 247.757812 245.847656 247.757812 236.941406 L 247.757812 172.15625 C 247.757812 165.851562 246.410156 159.859375 243.980469 154.457031 Z M 243.980469 154.457031 " fill-opacity="1" fill-rule="nonzero"/></g><g clip-path="url(#2bbd502eee)"><path fill="#e15c63" d="M 231.601562 174.289062 L 231.601562 253.070312 L 149.917969 253.070312 L 149.917969 174.289062 C 149.917969 164.8125 157.613281 157.132812 167.101562 157.132812 L 214.417969 157.132812 C 223.910156 157.132812 231.601562 164.8125 231.601562 174.289062 Z M 231.601562 174.289062 " fill-opacity="1" fill-rule="nonzero"/></g><path fill="#655f68" d="M 187.285156 128.855469 L 194.238281 128.855469 L 194.238281 138.875 L 187.285156 138.875 Z M 187.285156 128.855469 " fill-opacity="1" fill-rule="nonzero"/><path fill="#c43b58" d="M 207.007812 151.417969 L 207.007812 157.132812 L 174.515625 157.132812 L 174.515625 151.417969 C 174.515625 147.734375 177.507812 144.746094 181.199219 144.746094 L 200.320312 144.746094 C 204.015625 144.746094 207.007812 147.734375 207.007812 151.417969 Z M 207.007812 151.417969 " fill-opacity="1" fill-rule="nonzero"/><path fill="#e7f2f1" d="M 190.761719 207.695312 C 199.378906 207.695312 206.363281 214.671875 206.363281 223.277344 C 206.363281 231.878906 199.378906 238.855469 190.761719 238.855469 C 182.144531 238.855469 175.15625 231.878906 175.15625 223.277344 C 175.15625 214.671875 182.144531 207.695312 190.761719 207.695312 Z M 200.195312 225.691406 C 201.855469 222.058594 200.40625 218.058594 196.832031 217.472656 C 193.257812 216.886719 190.761719 220.304688 190.761719 220.304688 C 190.761719 220.304688 188.265625 216.886719 184.691406 217.472656 C 181.117188 218.058594 179.667969 222.058594 181.328125 225.691406 C 182.988281 229.324219 190.761719 232.476562 190.761719 232.476562 C 190.761719 232.476562 198.535156 229.324219 200.195312 225.691406 Z M 200.195312 225.691406 " fill-opacity="1" fill-rule="nonzero"/><path fill="#e15c63" d="M 196.832031 217.472656 C 200.40625 218.058594 201.855469 222.058594 200.195312 225.691406 C 198.535156 229.324219 190.761719 232.476562 190.761719 232.476562 C 190.761719 232.476562 182.988281 229.324219 181.328125 225.691406 C 179.667969 222.058594 181.117188 218.058594 184.691406 217.472656 C 188.265625 216.886719 190.761719 220.304688 190.761719 220.304688 C 190.761719 220.304688 193.257812 216.886719 196.832031 217.472656 Z M 196.832031 217.472656 " fill-opacity="1" fill-rule="nonzero"/><g clip-path="url(#bdf20776c6)"><path fill="#c43b58" d="M 149.917969 244.734375 L 149.917969 253.070312 C 142.425781 253.070312 136.125 247.980469 134.300781 241.070312 C 139.78125 242.65625 144.980469 243.867188 149.917969 244.734375 Z M 149.917969 244.734375 " fill-opacity="1" fill-rule="nonzero"/></g><g clip-path="url(#556aa252c9)"><path fill="#c43b58" d="M 243.980469 154.457031 C 246.410156 159.859375 247.757812 165.851562 247.757812 172.15625 L 247.757812 236.941406 C 247.757812 245.847656 240.523438 253.070312 231.601562 253.070312 L 231.601562 205.296875 C 243.15625 179.949219 242.636719 152.191406 242.625 151.710938 C 243.113281 152.601562 243.558594 153.515625 243.976562 154.441406 Z M 243.980469 154.457031 " fill-opacity="1" fill-rule="nonzero"/></g><g clip-path="url(#3dad69efbc)"><path fill="#d14b62" d="M 231.601562 205.296875 L 231.601562 253.070312 L 149.917969 253.070312 L 149.917969 244.734375 C 197.003906 253.015625 220.191406 230.335938 231.601562 205.296875 Z M 231.601562 205.296875 " fill-opacity="1" fill-rule="nonzero"/></g><path fill="#e7f2f1" d="M 168.757812 177.851562 C 168.566406 177.40625 168.128906 177.117188 167.644531 177.117188 C 167.160156 177.117188 166.722656 177.40625 166.53125 177.851562 L 159.898438 193.261719 C 159.894531 193.269531 159.890625 193.273438 159.890625 193.28125 L 156.792969 200.472656 C 156.527344 201.085938 156.8125 201.796875 157.429688 202.0625 C 157.585938 202.128906 157.746094 202.160156 157.90625 202.160156 C 158.375 202.160156 158.824219 201.886719 159.019531 201.425781 L 161.808594 194.953125 L 173.484375 194.953125 L 176.269531 201.425781 C 176.535156 202.042969 177.246094 202.324219 177.863281 202.0625 C 178.476562 201.796875 178.761719 201.085938 178.496094 200.472656 Z M 162.847656 192.53125 L 167.644531 181.390625 L 172.441406 192.53125 Z M 162.847656 192.53125 " fill-opacity="1" fill-rule="nonzero"/><path fill="#e7f2f1" d="M 199.21875 179.539062 C 199.886719 179.539062 200.429688 178.996094 200.429688 178.328125 C 200.429688 177.660156 199.886719 177.117188 199.21875 177.117188 L 184.179688 177.117188 C 183.507812 177.117188 182.96875 177.660156 182.96875 178.328125 L 182.96875 200.949219 C 182.96875 201.617188 183.507812 202.160156 184.179688 202.160156 L 199.21875 202.160156 C 199.886719 202.160156 200.429688 201.617188 200.429688 200.949219 C 200.429688 200.28125 199.886719 199.738281 199.21875 199.738281 L 185.390625 199.738281 L 185.390625 190.847656 L 199.21875 190.847656 C 199.886719 190.847656 200.429688 190.308594 200.429688 189.640625 C 200.429688 188.972656 199.886719 188.429688 199.21875 188.429688 L 185.390625 188.429688 L 185.390625 179.539062 Z M 199.21875 179.539062 " fill-opacity="1" fill-rule="nonzero"/><path fill="#e7f2f1" d="M 221.089844 180.789062 C 218.722656 178.421875 215.574219 177.117188 212.226562 177.117188 L 206.0625 177.117188 C 205.390625 177.117188 204.847656 177.660156 204.847656 178.328125 L 204.847656 200.949219 C 204.847656 201.617188 205.390625 202.160156 206.0625 202.160156 L 212.226562 202.160156 C 219.140625 202.160156 224.761719 196.542969 224.761719 189.640625 C 224.761719 186.296875 223.460938 183.15625 221.089844 180.789062 Z M 212.226562 199.738281 L 207.273438 199.738281 L 207.273438 179.539062 L 212.226562 179.539062 C 214.925781 179.539062 217.464844 180.589844 219.378906 182.496094 C 221.289062 184.40625 222.339844 186.945312 222.339844 189.640625 C 222.339844 195.207031 217.804688 199.738281 212.226562 199.738281 Z M 212.226562 199.738281 " fill-opacity="1" fill-rule="nonzero"/></svg>