<svg xmlns="http://www.w3.org/2000/svg" xmlns:xlink="http://www.w3.org/1999/xlink" width="200" zoomAndPan="magnify" viewBox="0 0 375 374.999991" height="200" preserveAspectRatio="xMidYMid meet" version="1.0"><defs><clipPath id="a5cbf2f024"><path d="M 119 96.488281 L 261 96.488281 L 261 246.488281 L 119 246.488281 Z M 119 96.488281 " clip-rule="nonzero"/></clipPath><clipPath id="4102ae35cc"><path d="M 172 134.167969 L 207 134.167969 L 207 164.917969 L 172 164.917969 Z M 172 134.167969 " clip-rule="nonzero"/></clipPath></defs><g clip-path="url(#a5cbf2f024)"><path fill="#ffffff" d="M 183.707031 241.878906 L 153.75 241.878906 L 153.75 237.003906 L 183.707031 237.003906 Z M 154.304688 224.96875 C 148.359375 219.523438 142.515625 214.148438 137.347656 207.683594 C 133.429688 202.785156 131.976562 200.953125 130.582031 194.722656 L 124.273438 166.460938 C 123.59375 163.429688 126.933594 161.089844 129.566406 162.757812 C 130.351562 163.257812 130.90625 164.035156 131.097656 164.941406 L 135.933594 186.570312 C 135.953125 186.6875 135.992188 186.800781 136.027344 186.90625 C 135.933594 188.972656 136.660156 191.015625 138.074219 192.550781 L 149.5625 205.171875 C 150.394531 206.09375 151.835938 206.171875 152.757812 205.324219 C 153.691406 204.480469 153.75 203.042969 152.910156 202.117188 L 141.417969 189.496094 C 140.1875 188.152344 140.328125 185.957031 141.628906 184.761719 C 142.949219 183.574219 144.976562 183.667969 146.160156 184.972656 L 159.273438 199.339844 C 171.777344 209.949219 174.167969 213.097656 176.15625 228.796875 L 176.632812 232.46875 L 158.757812 232.46875 C 158.050781 229.539062 156.578125 227.078125 154.304688 224.96875 Z M 183.878906 232.46875 L 181.507812 232.46875 L 180.953125 228.191406 C 178.8125 211.152344 175.542969 206.792969 162.523438 195.75 L 149.734375 181.714844 C 147.078125 178.785156 142.71875 178.285156 139.488281 180.335938 L 135.820312 163.886719 C 134.828125 159.414062 130.355469 156.5625 125.878906 157.5625 C 121.386719 158.566406 118.554688 163.03125 119.550781 167.515625 L 125.859375 195.777344 C 127.484375 203.097656 129.394531 205.480469 133.5625 210.703125 C 138.988281 217.496094 145.160156 223.140625 151.015625 228.527344 C 152.277344 229.695312 153.15625 230.972656 153.710938 232.46875 C 151.140625 232.46875 149.199219 234.414062 149.199219 236.851562 L 149.199219 242.03125 C 149.199219 244.449219 151.167969 246.417969 153.597656 246.417969 L 183.878906 246.417969 C 186.289062 246.417969 188.257812 244.449219 188.257812 242.03125 L 188.257812 236.851562 C 188.257812 234.433594 186.289062 232.46875 183.878906 232.46875 Z M 255.148438 166.460938 L 248.839844 194.722656 C 247.460938 200.953125 245.992188 202.785156 242.070312 207.683594 C 236.78125 214.3125 231.171875 219.386719 225.113281 224.96875 C 222.839844 227.078125 221.367188 229.539062 220.660156 232.464844 L 202.804688 232.464844 L 203.265625 228.796875 C 205.253906 213.09375 207.640625 209.949219 220.144531 199.339844 L 233.257812 184.972656 C 234.980469 183.078125 238.226562 183.863281 238.765625 186.507812 C 238.785156 186.597656 238.804688 186.691406 238.839844 186.777344 C 238.976562 187.761719 238.667969 188.769531 238 189.496094 L 226.511719 202.117188 C 225.175781 203.582031 226.238281 205.914062 228.191406 205.914062 C 228.804688 205.914062 229.417969 205.664062 229.855469 205.171875 L 241.363281 192.550781 C 242.761719 191.015625 243.488281 188.972656 243.390625 186.90625 C 243.449219 186.800781 243.46875 186.6875 243.503906 186.574219 L 248.324219 164.941406 C 248.75 163.070312 250.621094 161.871094 252.507812 162.289062 C 254.382812 162.707031 255.566406 164.578125 255.148438 166.460938 Z M 225.667969 241.878906 L 195.710938 241.878906 L 195.710938 237.003906 L 225.667969 237.003906 Z M 253.5625 157.5625 C 249.074219 156.574219 244.597656 159.394531 243.601562 163.882812 L 239.929688 180.335938 C 236.699219 178.28125 232.339844 178.785156 229.683594 181.710938 L 216.894531 195.75 C 203.894531 206.789062 200.625 211.152344 198.464844 228.191406 L 197.929688 232.464844 L 195.558594 232.464844 C 193.132812 232.464844 191.164062 234.433594 191.164062 236.851562 L 191.164062 242.027344 C 191.164062 244.449219 193.132812 246.417969 195.558594 246.417969 L 225.839844 246.417969 C 228.25 246.417969 230.21875 244.449219 230.21875 242.027344 L 230.21875 236.851562 C 230.21875 234.40625 228.285156 232.464844 225.707031 232.464844 C 226.511719 230.300781 227.605469 229.261719 229.246094 227.757812 C 234.847656 222.597656 240.621094 217.261719 245.855469 210.703125 C 250.042969 205.480469 251.9375 203.097656 253.5625 195.777344 L 259.871094 167.515625 C 260.882812 163.03125 258.035156 158.566406 253.5625 157.5625 Z M 219.953125 161.28125 L 228.59375 166.265625 L 228.59375 126.617188 L 219.953125 131.597656 Z M 191.984375 180.054688 L 191.984375 190.023438 L 226.320312 170.195312 L 217.679688 165.210938 Z M 161.742188 165.210938 L 153.101562 170.199219 L 187.433594 190.023438 L 187.433594 180.054688 Z M 159.464844 131.597656 L 150.84375 126.617188 L 150.84375 166.269531 L 159.464844 161.28125 Z M 187.433594 112.828125 L 161.742188 127.667969 L 153.101562 122.6875 L 187.433594 102.859375 Z M 217.679688 127.667969 L 191.984375 112.828125 L 191.984375 102.859375 L 226.320312 122.6875 Z M 205.480469 152.925781 C 208.195312 148.292969 209.621094 143.179688 207.949219 138.539062 L 215.421875 134.222656 L 215.421875 158.664062 Z M 191.984375 165.882812 L 191.984375 174.816406 L 213.148438 162.59375 L 202.882812 156.667969 C 202.824219 156.761719 202.746094 156.855469 202.671875 156.949219 C 199.652344 160.671875 195.730469 163.921875 191.984375 165.882812 Z M 176.539062 156.667969 L 166.273438 162.59375 L 187.433594 174.816406 L 187.433594 165.882812 C 183.425781 163.78125 179.746094 160.601562 176.539062 156.667969 Z M 171.492188 138.539062 C 169.785156 143.070312 171.285156 148.398438 173.9375 152.925781 L 163.996094 158.664062 L 163.996094 134.21875 Z M 187.433594 131.886719 L 187.433594 118.070312 L 166.273438 130.289062 L 173.84375 134.664062 C 177.265625 130.921875 182.738281 129.734375 187.433594 131.886719 Z M 196.878906 130.820312 C 200.320312 130.820312 203.417969 132.300781 205.578125 134.664062 L 213.148438 130.289062 L 191.984375 118.070312 L 191.984375 131.886719 C 193.496094 131.195312 195.15625 130.820312 196.878906 130.820312 Z M 189.710938 161.953125 C 196.707031 158.429688 204.125 149.746094 204.125 142.613281 C 204.125 138.613281 200.875 135.359375 196.878906 135.359375 C 194.777344 135.359375 192.808594 136.261719 191.410156 137.832031 C 190.511719 138.867188 188.894531 138.859375 188.007812 137.832031 C 186.632812 136.261719 184.644531 135.359375 182.558594 135.359375 C 178.546875 135.359375 175.296875 138.609375 175.296875 142.613281 C 175.296875 149.746094 182.730469 158.429688 189.710938 161.953125 Z M 233.125 170.199219 L 233.125 122.6875 C 233.125 121.875 232.703125 121.128906 231.996094 120.722656 L 190.835938 96.964844 C 190.148438 96.558594 189.289062 96.558594 188.582031 96.964844 L 147.441406 120.722656 C 146.734375 121.128906 146.292969 121.875 146.292969 122.6875 L 146.292969 170.199219 C 146.292969 171.007812 146.734375 171.757812 147.441406 172.160156 L 188.582031 195.917969 C 189.285156 196.328125 190.140625 196.324219 190.835938 195.917969 L 231.996094 172.160156 C 232.703125 171.757812 233.125 171.007812 233.125 170.199219 Z M 233.125 170.199219 " fill-opacity="1" fill-rule="evenodd"/></g><g clip-path="url(#4102ae35cc)"><path fill="#ff0000" d="M 206.65625 140.71875 C 205.695312 137.015625 202.675781 134.667969 198.519531 134.222656 C 198.15625 134.183594 197.808594 134.167969 197.464844 134.167969 C 193.851562 134.167969 191.28125 136.253906 189.8125 139.109375 C 188.277344 136.132812 185.660156 134.199219 181.839844 134.199219 C 181.585938 134.199219 181.328125 134.207031 181.0625 134.222656 C 177.265625 134.472656 174 136.722656 172.972656 141.109375 C 171.121094 149 179.878906 157.066406 189.8125 164.914062 C 200.378906 157.121094 208.625 148.308594 206.65625 140.71875 Z M 206.65625 140.71875 " fill-opacity="1" fill-rule="nonzero"/></g><path stroke-linecap="round" transform="matrix(0.0194019, 0, 0, 0.0192175, 172.160076, 133.660186)" fill="none" stroke-linejoin="round" d="M 289.521499 942.743261 L 478.170865 942.743261 L 505.552203 860.624048 L 531.524207 942.743261 L 558.905545 942.743261 L 570.985547 980.753887 L 601.588219 457.345534 L 647.08956 1195.402128 L 671.450898 942.743261 L 736.884242 941.320404 C 736.884242 941.320404 791.646918 865.095886 852.650929 941.320404 L 946.874945 939.694281 L 978.88695 860.624048 L 1004.657621 936.6453 L 1030.629626 939.694281 L 1041.300294 979.33103 L 1076.3323 469.541457 L 1120.424308 1195.402128 L 1143.174979 939.694281 L 1217.668325 942.743261 C 1220.486992 942.539996 1269.411 866.315478 1330.415011 941.320404 L 1506.783041 939.694281 " stroke="#ffffff" stroke-width="30" stroke-opacity="1" stroke-miterlimit="10"/><path stroke-linecap="butt" transform="matrix(0.0194019, 0, 0, 0.0192175, 172.160076, 133.660186)" fill-opacity="1" fill="#ffffff" fill-rule="nonzero" stroke-linejoin="miter" d="M 1532.352379 938.474688 C 1532.352379 945.385711 1529.936378 951.483673 1524.903044 956.565307 C 1519.86971 961.443676 1513.829709 963.882861 1506.783041 963.882861 C 1499.736373 963.882861 1493.696372 961.443676 1488.663038 956.565307 C 1483.629704 951.483673 1481.213703 945.385711 1481.213703 938.474688 C 1481.213703 931.3604 1483.629704 925.262439 1488.663038 920.384069 C 1493.696372 915.302435 1499.736373 912.86325 1506.783041 912.86325 C 1513.829709 912.86325 1519.86971 915.302435 1524.903044 920.384069 C 1529.936378 925.262439 1532.352379 931.3604 1532.352379 938.474688 Z M 1532.352379 938.474688 " stroke="#ffffff" stroke-width="1" stroke-opacity="1" stroke-miterlimit="10"/></svg>